<?xml version="1.0" encoding="UTF-8"?>
<svg version="1.1" xmlns="http://www.w3.org/2000/svg" width="2000" height="676">
<path d="M0 0 C1.10874985 -0.00101212 1.10874985 -0.00101212 2.23989868 -0.00204468 C30.14388759 0.03800692 57.53634623 4.072981 83.9375 13.25 C84.88834473 13.57605225 84.88834473 13.57605225 85.85839844 13.90869141 C116.98793805 24.6782938 144.14692709 42.26105511 168.625 64.125 C169.15496582 64.58962646 169.68493164 65.05425293 170.23095703 65.53295898 C171.52591611 66.70970514 172.73951779 67.97466117 173.9375 69.25 C173.9375 73.31710328 172.5174009 74.06105741 169.68652344 76.92089844 C169.00853447 77.61159172 169.00853447 77.61159172 168.31684875 78.3162384 C166.81797558 79.83854311 165.30811994 81.349358 163.796875 82.859375 C162.75240825 83.91093899 161.70824303 84.96280255 160.66436768 86.01495361 C158.47364108 88.21913873 156.27704937 90.41727904 154.07666016 92.61181641 C151.25384672 95.42872884 148.449717 98.26346559 145.65014267 101.10345078 C143.49864711 103.28075839 141.33582409 105.44652975 139.16956329 107.60913849 C138.13056517 108.64983358 137.09556283 109.69453353 136.0646286 110.74321747 C134.62335944 112.20655085 133.16718421 113.6532142 131.70605469 115.09667969 C130.46695343 116.33886261 130.46695343 116.33886261 129.20281982 117.60614014 C126.9375 119.25 126.9375 119.25 124.79718018 119.13043213 C121.97903437 117.79623169 119.90155684 115.86638415 117.5625 113.8125 C99.96421622 98.77011867 80.6812291 88.14536165 58.9375 80.25 C57.82246094 79.84007813 56.70742188 79.43015625 55.55859375 79.0078125 C20.88946523 67.34596744 -19.42593604 68.25450031 -54.0625 79.25 C-54.82836426 79.49202148 -55.59422852 79.73404297 -56.38330078 79.98339844 C-79.37398001 87.44061312 -99.78924716 99.5016838 -118.0625 115.25 C-119.02929688 116.08144531 -119.99609375 116.91289063 -120.9921875 117.76953125 C-157.01303678 149.39859646 -176.38624141 195.73516291 -179.80078125 242.953125 C-182.65611197 292.61663018 -165.62818657 340.91526965 -132.7109375 378.0703125 C-126.0068337 385.4895207 -119.09872341 392.25895655 -111.0625 398.25 C-110.54252441 398.64493652 -110.02254883 399.03987305 -109.48681641 399.44677734 C-100.48349667 406.2610338 -91.06634427 412.02485571 -81.0625 417.25 C-80.4638916 417.56565918 -79.8652832 417.88131836 -79.24853516 418.20654297 C-36.59797255 440.36590601 15.77548901 441.42060123 61.17578125 427.71875 C82.34878854 420.9221983 101.03139989 409.59139762 117.9375 395.25 C118.89398438 394.44046875 119.85046875 393.6309375 120.8359375 392.796875 C148.25216522 368.98384694 157.99687016 336.95314922 164.9375 302.25 C110.4875 302.25 56.0375 302.25 -0.0625 302.25 C-0.0625 279.15 -0.0625 256.05 -0.0625 232.25 C77.1575 232.25 154.3775 232.25 233.9375 232.25 C247.5483365 286.69334602 233.39782546 353.89583155 205.5234375 401.46484375 C177.74775514 446.84832475 132.22634075 480.23162576 81.9375 496.25 C80.81456543 496.60771484 80.81456543 496.60771484 79.66894531 496.97265625 C13.6558696 517.5557979 -59.99394695 508.7573335 -120.9375 477.375 C-138.98315079 467.86488848 -155.7960802 456.15047595 -170.8046875 442.32421875 C-172.83413463 440.45979587 -174.90284156 438.66225446 -177 436.875 C-185.91233801 429.07670424 -193.76828678 420.56826191 -201.0625 411.25 C-201.85269531 410.26515625 -202.64289063 409.2803125 -203.45703125 408.265625 C-243.86464856 357.43385122 -262.7885429 291.74123499 -256.11474609 227.16943359 C-248.67692943 164.26641222 -217.79658956 103.38777995 -168.6875 62.625 C-166.8193253 61.1579334 -164.94361419 59.70043805 -163.0625 58.25 C-161.82219933 57.25870937 -160.58267123 56.26645163 -159.34375 55.2734375 C-114.00151138 19.31741773 -57.79600623 0.04794865 0 0 Z " fill="#4285F4" transform="translate(259.0625,2.75)"/>
<path d="M0 0 C3.73787111 3.29876731 7.25918386 6.77187938 10.69921875 10.37890625 C12.50892871 12.40458964 12.50892871 12.40458964 14.66015625 13.34765625 C14.66015625 4.43765625 14.66015625 -4.47234375 14.66015625 -13.65234375 C37.43015625 -13.65234375 60.20015625 -13.65234375 83.66015625 -13.65234375 C83.70433376 24.93874895 83.74122864 63.52981759 83.76228691 102.12092838 C83.76478801 106.6877967 83.76737668 111.25466496 83.77001953 115.8215332 C83.77080646 117.18517567 83.77080646 117.18517567 83.77160929 118.57636648 C83.7802871 133.25278498 83.79604245 147.92918765 83.81446184 162.60559679 C83.83323422 177.6902424 83.84428841 192.77487978 83.84833324 207.85953659 C83.85106316 217.15063806 83.85965208 226.44169475 83.87598918 235.73278242 C83.88664689 242.12355336 83.88973725 248.51430152 83.887159 254.90508068 C83.88589122 258.57976916 83.8876878 262.25437997 83.8985672 265.92905426 C83.95673242 286.61150534 83.82048757 307.45739526 79.53515625 327.78515625 C79.21865112 329.31547485 79.21865112 329.31547485 78.89575195 330.87670898 C73.2082366 357.00479767 63.01565702 380.84545721 45.66015625 401.34765625 C44.61021484 402.600625 44.61021484 402.600625 43.5390625 403.87890625 C22.47418782 428.2105262 -8.04759388 442.00852661 -39.33984375 447.34765625 C-40.51160156 447.55261719 -41.68335938 447.75757813 -42.890625 447.96875 C-70.1742368 451.94475373 -98.22270622 450.18009605 -124.33984375 441.34765625 C-125.42136719 440.99058594 -126.50289062 440.63351562 -127.6171875 440.265625 C-168.37939202 425.71870964 -197.45607668 394.12987766 -216.52734375 356.23828125 C-217.33984375 354.34765625 -217.33984375 354.34765625 -217.33984375 352.34765625 C-202.60709917 345.96783587 -187.8396997 339.67647572 -173.00238037 333.54351807 C-171.47669924 332.91267198 -169.95151156 332.28063118 -168.42681885 331.6473999 C-166.28214159 330.75733633 -164.13555208 329.87206631 -161.98828125 328.98828125 C-161.34368958 328.7201059 -160.6990979 328.45193054 -160.03497314 328.17562866 C-155.56923357 326.34765625 -155.56923357 326.34765625 -153.33984375 326.34765625 C-152.92734375 327.23066406 -152.51484375 328.11367188 -152.08984375 329.0234375 C-148.23773631 337.09985308 -143.99711813 344.36107696 -138.33984375 351.34765625 C-137.23189453 352.72050781 -137.23189453 352.72050781 -136.1015625 354.12109375 C-122.17929544 370.39032236 -102.621925 380.83610629 -81.33984375 383.34765625 C-57.7195665 384.73111437 -35.51838968 380.86434025 -16.33984375 366.34765625 C-15.68757813 365.8784375 -15.0353125 365.40921875 -14.36328125 364.92578125 C2.73427158 351.65370828 9.91679617 328.29522028 12.72094727 307.80786133 C14.36097994 294.06983499 14.42422196 280.16740928 14.66015625 266.34765625 C10.38192212 270.0548897 6.17926314 273.79890156 2.09765625 277.72265625 C-21.5899738 298.9835719 -54.48753116 304.9353347 -85.33984375 303.34765625 C-118.54496863 300.77328531 -149.74564721 286.53134205 -174.33984375 264.34765625 C-175.71444127 263.20134011 -177.08938925 262.05544397 -178.46484375 260.91015625 C-209.58739873 233.31090938 -227.31282677 192.38756003 -230.33984375 151.34765625 C-232.84921194 108.7406755 -219.51914009 65.11653957 -191.2578125 32.7421875 C-188.8102716 30.02274114 -186.29038505 27.38122551 -183.72753906 24.77050781 C-182.43907256 23.44939895 -181.18101329 22.09881954 -179.92578125 20.74609375 C-135.95729625 -25.57521988 -52.35773855 -41.75363961 0 0 Z M-125.33984375 64.34765625 C-126.56960938 65.43626953 -126.56960938 65.43626953 -127.82421875 66.546875 C-142.53686141 80.36853464 -150.60926928 97.92500913 -155.33984375 117.34765625 C-155.68015625 118.72050781 -155.68015625 118.72050781 -156.02734375 120.12109375 C-161.15807769 144.99090131 -156.38918984 172.57490556 -143.46484375 194.34765625 C-129.51500449 215.47322857 -110.62176188 231.14584507 -85.59985352 236.75415039 C-61.45408793 241.63140147 -39.57395888 236.4384255 -19.08984375 223.09765625 C3.43575396 206.31684185 14.08226039 182.86655613 19.12109375 155.87890625 C19.43274236 153.68894302 19.5757835 151.5589253 19.66015625 149.34765625 C19.71171875 148.15527344 19.76328125 146.96289062 19.81640625 145.734375 C20.63436663 117.39982174 12.87118823 89.5401547 -6.46875 68.3125 C-22.77117805 51.16636441 -43.62289796 41.90676314 -67.33984375 41.09765625 C-89.42376847 41.89305184 -108.88902242 49.66720476 -125.33984375 64.34765625 Z " fill="#4185F4" transform="translate(1459.33984375,206.65234375)"/>
<path d="M0 0 C8.38502656 7.46958934 15.52186094 15.49881615 22.0546875 24.6171875 C22.69398193 25.49213867 22.69398193 25.49213867 23.34619141 26.38476562 C48.99554939 61.74846615 57.01703111 106.85235685 51.0546875 149.6171875 C43.77777055 192.18556279 21.12396366 230.42643818 -14.0703125 255.7421875 C-51.29081784 281.68502701 -97.69806642 291.33788779 -142.359375 283.52734375 C-149.00483703 282.25085322 -155.48133422 280.6380458 -161.9453125 278.6171875 C-162.58823242 278.42318359 -163.23115234 278.22917969 -163.89355469 278.02929688 C-203.92139675 265.79371197 -237.44577931 237.03735038 -257.15722656 200.36230469 C-268.71217771 178.10658642 -275.22329847 153.73071882 -275.9453125 128.6171875 C-276.00525391 127.1321875 -276.00525391 127.1321875 -276.06640625 125.6171875 C-276.86819362 88.64064076 -266.12036581 49.17267781 -241.9453125 20.6171875 C-241.02642197 19.49945508 -240.10850211 18.38092416 -239.19140625 17.26171875 C-211.31316446 -16.49664367 -171.60957618 -36.59621985 -128.12133789 -40.8671875 C-81.12206158 -44.86018228 -35.69712241 -30.95872281 0 0 Z M-174.9453125 50.6171875 C-175.55632812 51.15472656 -176.16734375 51.69226563 -176.796875 52.24609375 C-193.12345226 67.11893468 -201.8111748 92.49436572 -203.0859375 113.98828125 C-204.09608808 140.05016624 -198.65985333 167.45592415 -180.81787109 187.50585938 C-178.57561362 189.92588003 -176.26407955 192.27031419 -173.9453125 194.6171875 C-173.36265625 195.27203125 -172.78 195.926875 -172.1796875 196.6015625 C-158.49087928 211.67307862 -135.91556836 219.78003699 -116.0703125 220.8203125 C-91.73666765 221.28154421 -68.73776647 213.59986684 -51.01782227 196.69580078 C-49.64732044 195.34936744 -48.29581872 193.98367605 -46.9453125 192.6171875 C-46.21828125 191.90046875 -45.49125 191.18375 -44.7421875 190.4453125 C-26.28575401 171.11692153 -19.3707743 143.76000407 -19.734375 117.6953125 C-20.58555632 90.10022432 -32.12070996 65.39607406 -51.93359375 46.21875 C-88.64463062 14.50727068 -140.73456564 17.45622891 -174.9453125 50.6171875 Z " fill="#FBBB04" transform="translate(1151.9453125,224.3828125)"/>
<path d="M0 0 C14.53564095 13.24478306 25.30029231 28.77608494 34.3828125 46.12890625 C35.08857422 47.4746875 35.08857422 47.4746875 35.80859375 48.84765625 C55.02416295 88.40544039 56.02628887 136.16096749 42.04052734 177.45727539 C32.06584716 205.29821548 14.06360872 231.55366483 -9.6171875 249.50390625 C-10.35775391 250.06553467 -11.09832031 250.62716309 -11.86132812 251.20581055 C-48.03962796 278.22754026 -93.8161947 289.30979616 -138.5546875 283.00390625 C-156.1056331 280.23413966 -172.76469319 275.14298859 -188.6171875 267.12890625 C-189.75414062 266.5563208 -189.75414062 266.5563208 -190.9140625 265.97216797 C-201.74563338 260.43143782 -211.41875102 254.08807411 -220.6171875 246.12890625 C-221.41745361 245.43812988 -221.41745361 245.43812988 -222.23388672 244.73339844 C-254.47655757 216.61834112 -273.81666038 177.11012177 -277.0859375 134.48046875 C-280.07352582 87.42883644 -266.11078729 44.44374377 -235.125 8.953125 C-234.29742188 8.02113281 -233.46984375 7.08914062 -232.6171875 6.12890625 C-232.03710938 5.47535156 -231.45703125 4.82179687 -230.859375 4.1484375 C-171.16044223 -59.0004336 -65.08289142 -56.30541323 0 0 Z M-176.6171875 49.12890625 C-177.44863281 49.93714844 -178.28007813 50.74539063 -179.13671875 51.578125 C-198.41815018 71.39268357 -205.15540432 98.64702934 -204.83203125 125.62890625 C-204.05320919 153.49235377 -192.10499957 177.39188889 -172.38671875 196.59765625 C-154.32066732 213.10936475 -130.98900882 220.09991987 -106.82177734 219.26513672 C-81.62224121 217.70795608 -60.20962457 204.43392989 -43.6171875 186.12890625 C-25.97256914 164.82493172 -20.02659927 137.17910216 -21.6171875 110.12890625 C-23.65797449 88.4589707 -31.91760418 68.20734496 -46.6171875 52.12890625 C-47.37644531 51.27683594 -48.13570312 50.42476562 -48.91796875 49.546875 C-55.37201536 42.67030488 -62.53216149 37.84517142 -70.6171875 33.12890625 C-71.4834375 32.62359375 -72.3496875 32.11828125 -73.2421875 31.59765625 C-107.6436163 13.03899072 -149.82437649 22.42466651 -176.6171875 49.12890625 Z " fill="#EA4334" transform="translate(800.6171875,225.87109375)"/>
<path d="M0 0 C1.67582104 1.55267764 3.34205538 3.11574822 5 4.6875 C5.94617187 5.56921875 6.89234375 6.4509375 7.8671875 7.359375 C31.0142287 29.36667149 45.12202178 58.68963981 55 88.6875 C49.294213 91.61897717 43.53434344 94.21162297 37.59765625 96.63671875 C36.69983429 97.00639267 35.80201233 97.37606659 34.87698364 97.75694275 C31.93992031 98.96565135 29.00119652 100.17026828 26.0625 101.375 C23.99309994 102.22604603 21.92384748 103.07745104 19.85473633 103.92919922 C16.67801672 105.23685085 13.50121323 106.54429393 10.32395935 107.85064697 C1.10667599 111.64054771 -8.10157983 115.45195023 -17.30627441 119.27230835 C-19.83131899 120.32031069 -22.3565514 121.36785922 -24.88183594 122.4152832 C-29.92138375 124.50563709 -34.96071364 126.59651591 -40 128.6875 C-80.30900461 145.41317926 -120.64028059 162.08454824 -161 178.6875 C-161 188.22876224 -149.17040716 199.30583394 -142.91796875 205.875 C-126.10728736 221.84358789 -103.28579352 227.4532976 -80.62890625 226.9375 C-56.56263416 225.92609962 -33.88124348 215.61826758 -17.41455078 197.99023438 C-13.03488083 193.0823836 -8.90412742 187.98231333 -5 182.6875 C-1.55217373 183.96936499 1.41208982 185.45677999 4.47973633 187.48144531 C5.33445023 188.04252991 6.18916412 188.6036145 7.06977844 189.18170166 C7.98132187 189.78689636 8.8928653 190.39209106 9.83203125 191.015625 C10.7826091 191.64225037 11.73318695 192.26887573 12.71257019 192.91448975 C14.7219902 194.24048675 16.72995846 195.56868601 18.73657227 196.89892578 C21.78767583 198.92104776 24.8436145 200.93568485 27.90039062 202.94921875 C29.85706357 204.24174445 31.81345298 205.53469951 33.76953125 206.828125 C35.12773735 207.72377167 35.12773735 207.72377167 36.51338196 208.63751221 C41.81111656 212.1544975 46.96280771 215.80599222 52 219.6875 C29.88898384 254.42438137 -6.00432652 279.84834525 -46.23046875 288.91015625 C-90.95464099 298.37411422 -137.31084498 291.44855922 -176 266.6875 C-212.28987691 242.05827386 -235.87536635 204.79238526 -244.54345703 162.00488281 C-252.82279511 117.32769999 -244.27912095 69.21535835 -218.87402344 31.35644531 C-195.87847599 -1.91593963 -161.28526597 -24.55227675 -121.5 -32.125 C-77.68228542 -39.75286254 -33.65099043 -29.59793929 0 0 Z M-150 56.6875 C-150.81339844 57.49058594 -151.62679688 58.29367187 -152.46484375 59.12109375 C-168.34858441 75.65647506 -175.44142252 98.68092943 -175.0703125 121.265625 C-175.04710937 122.06484375 -175.02390625 122.8640625 -175 123.6875 C-158.71595563 117.2843519 -142.58022918 110.53340014 -126.43544006 103.78956604 C-118.0856064 100.30309235 -109.72779195 96.83594793 -101.36865234 93.37185669 C-98.81593707 92.31392444 -96.26341762 91.25552093 -93.7109375 90.19702148 C-85.60685303 86.83683715 -77.50126604 83.48034887 -69.39228821 80.13198853 C-65.60931344 78.56965461 -61.82700941 77.00570078 -58.04476929 75.44158936 C-56.23978884 74.69569501 -54.43447651 73.95060324 -52.6288147 73.20635986 C-50.12281051 72.17341497 -47.61793799 71.13776952 -45.11328125 70.1015625 C-44.37766968 69.79919678 -43.64205811 69.49683105 -42.88415527 69.18530273 C-38.83439476 67.50635874 -34.89928702 65.69996132 -31 63.6875 C-34.60865935 51.34302667 -44.90890008 43.22530569 -55.79296875 37.12109375 C-88.49881542 21.31090813 -125.37995412 31.7872829 -150 56.6875 Z " fill="#EA4334" transform="translate(1931,217.3125)"/>
<path d="M0 0 C23.43 0 46.86 0 71 0 C71 157.74 71 315.48 71 478 C47.57 478 24.14 478 0 478 C0 320.26 0 162.52 0 0 Z " fill="#33A752" transform="translate(1584,22)"/>
</svg>
