<?xml version="1.0" encoding="UTF-8"?>
<svg version="1.1" xmlns="http://www.w3.org/2000/svg" width="800" height="333">
<path d="M0 0 C13.2 0 26.4 0 40 0 C40 14.85 40 29.7 40 45 C68.38 45 96.76 45 126 45 C126 58.2 126 71.4 126 85 C118.76293115 85.13201168 111.52587625 85.26348861 104.28872681 85.39079285 C100.91544233 85.45025405 97.54218397 85.51071829 94.16894531 85.57275391 C76.44392239 85.89804459 58.72806758 86.07431594 41 86 C41.08467489 94.71081101 41.17966152 103.42143267 41.28752708 112.13198757 C41.33730472 116.17739422 41.38363512 120.22277708 41.421875 124.26831055 C41.45896355 128.17824602 41.50538467 132.08797295 41.55806351 135.99772835 C41.57648308 137.48348363 41.59163605 138.9692834 41.60334396 140.45510674 C41.74555975 157.8918316 45.47497472 172.14008099 58 185 C76.11684355 200.43398319 98.24854411 201.31523238 120.8984375 199.7265625 C135.51584346 197.85072106 149.6905782 190.6093966 159 179 C167.03995695 167.19914842 169.28103904 156.62199007 170.375 142.5625 C173.08899201 111.73638362 183.93090016 83.79796382 208.09765625 63.30859375 C231.45637148 44.33410768 259.10975989 36.62855119 289 39 C317.59352448 42.36306482 343.45146126 56.43159515 361.40234375 79.0234375 C375.58402312 98.65960894 383.43934049 120.50442696 383.3125 144.8125 C383.30404053 146.52360962 383.30404053 146.52360962 383.29541016 148.26928711 C383.17177815 156.87762458 382.45338786 164.70477162 380 173 C379.80132324 173.67289063 379.60264648 174.34578125 379.39794922 175.0390625 C371.59494346 200.75683431 354.13468724 224.01752026 330.3515625 237.01953125 C315.06481184 245.11428332 299.31508866 249.94514319 282 251 C280.96166016 251.06380859 280.96166016 251.06380859 279.90234375 251.12890625 C251.90923656 251.93795559 225.77293066 241.43822088 205 223 C201.59217734 219.73616984 198.28319842 216.38854169 195 213 C193.66894392 211.6643933 192.33637399 210.33028573 191 209 C190.21238281 209.89460937 189.42476562 210.78921875 188.61328125 211.7109375 C167.87669176 234.89640108 141.70737694 248.40514517 110.37109375 250.875 C81.24415318 252.4105224 55.64447529 242.64477279 33.8125 223.5625 C17.3003513 208.24839363 8.09417589 190.58055225 2 169 C0.36178428 172.02262338 -0.80406549 175.1439466 -1.95239258 178.37988281 C-11.89802015 206.21839135 -30.86234863 228.24367212 -57.53710938 241.17504883 C-59.67699041 242.15516411 -61.8298537 243.08891396 -64 244 C-64.72525879 244.30631348 -65.45051758 244.61262695 -66.19775391 244.92822266 C-87.62153997 253.49866312 -117.62498743 253.78968122 -139 245 C-140.28583984 244.47672119 -140.28583984 244.47672119 -141.59765625 243.94287109 C-153.20733776 239.08142018 -163.65214021 233.48595748 -173 225 C-173.54060059 224.51692383 -174.08120117 224.03384766 -174.63818359 223.53613281 C-189.0897327 210.43640831 -198.93029392 194.53497587 -205 176 C-205.01839432 176.77879517 -205.03678864 177.55759033 -205.05574036 178.35998535 C-205.23314184 185.77232451 -205.4232303 193.184187 -205.62686634 200.59584808 C-205.73107852 204.40442427 -205.83072382 208.21299559 -205.91918945 212.02197266 C-206.0050666 215.71172436 -206.10390869 219.40093912 -206.21100426 223.09013367 C-206.24931533 224.48350053 -206.28328966 225.87699504 -206.31241798 227.27058411 C-206.9858871 258.87061161 -218.63942771 284.60481382 -241 307 C-260.98819741 325.1977237 -285.07451489 333.77850394 -311.73535156 333.52148438 C-314.36617752 333.50007181 -316.99425695 333.5213909 -319.625 333.546875 C-334.50018056 333.57215298 -348.64243579 331.17964439 -362.5625 325.8125 C-363.72446899 325.37248657 -363.72446899 325.37248657 -364.90991211 324.92358398 C-377.44644039 320.02286004 -388.85319649 313.90706248 -399 305 C-399.85078125 304.38769531 -400.7015625 303.77539062 -401.578125 303.14453125 C-405.40671108 299.75438003 -406.85690353 296.45634959 -407.35644531 291.37231445 C-407.36266566 290.03595119 -407.35244887 288.69943761 -407.328125 287.36328125 C-407.32625183 286.64319382 -407.32437866 285.92310638 -407.32244873 285.18119812 C-407.31575549 283.66249945 -407.3018955 282.14381722 -407.28125 280.62524414 C-407.2503254 278.33658223 -407.24029125 276.04861519 -407.234375 273.75976562 C-407.1914971 265.79389674 -406.9252332 257.92150239 -406 250 C-402.30756765 251.38927673 -400.22486121 252.52175524 -397.625 255.5 C-379.72321724 274.00521364 -349.28502764 286.48043287 -323.9375 287.23828125 C-301.26692348 287.60217231 -281.0575322 284.37404223 -264 268 C-254.16176437 257.57993323 -247.82744303 245.44301818 -248 231 C-249.36318359 231.87011719 -249.36318359 231.87011719 -250.75390625 232.7578125 C-271.05297851 245.47645422 -291.12284637 250.87231469 -315 251 C-316.22460938 251.01289063 -317.44921875 251.02578125 -318.7109375 251.0390625 C-335.43815203 250.52254519 -351.62253439 244.20090969 -366 236 C-366.98097656 235.45730469 -367.96195312 234.91460937 -368.97265625 234.35546875 C-391.82765349 220.83977973 -406.4337903 197.92001426 -414 173 C-414.34160156 171.94167969 -414.68320312 170.88335937 -415.03515625 169.79296875 C-422.19414693 143.32135205 -416.30726265 114.27420415 -403.1875 90.75 C-388.67762075 65.77659977 -364.66798698 48.85496765 -337.01782227 41.50366211 C-336.35194092 41.33745361 -335.68605957 41.17124512 -335 41 C-334.25613037 40.81381104 -333.51226074 40.62762207 -332.74584961 40.43579102 C-325.92172422 38.89348793 -319.29204874 38.65214365 -312.3125 38.6875 C-311.16418701 38.69241455 -310.01587402 38.6973291 -308.83276367 38.70239258 C-300.19127881 38.82137087 -292.33732881 39.59165328 -284 42 C-282.14761719 42.52787109 -282.14761719 42.52787109 -280.2578125 43.06640625 C-268.32987428 46.76187177 -257.42036022 52.12256225 -247 59 C-246.67 54.38 -246.34 49.76 -246 45 C-232.8 45 -219.6 45 -206 45 C-205.67 67.44 -205.34 89.88 -205 113 C-202.69 107.72 -200.38 102.44 -198 97 C-186.08349613 72.90218107 -165.61724871 54.00550601 -140.11694336 45.05126953 C-139.21210205 44.74560059 -138.30726074 44.43993164 -137.375 44.125 C-136.52881104 43.83866699 -135.68262207 43.55233398 -134.81079102 43.25732422 C-124.21983406 39.86797342 -113.7810386 38.62694575 -102.6875 38.6875 C-101.59373047 38.69313965 -100.49996094 38.6987793 -99.37304688 38.70458984 C-90.8920397 38.83137814 -83.17888419 39.6088312 -75 42 C-74.33629395 42.19335938 -73.67258789 42.38671875 -72.98876953 42.5859375 C-55.98787627 47.68502513 -42.00550115 56.00767529 -29 68 C-28.33742188 68.58136719 -27.67484375 69.16273437 -26.9921875 69.76171875 C-14.51125363 81.28481351 -6.85965298 97.37425873 -1 113 C-0.67 75.71 -0.34 38.42 0 0 Z M-363.375 105.4375 C-373.9671073 118.25611149 -378.56558677 132.91899325 -377.84765625 149.5234375 C-375.76598494 165.89925179 -368.19509853 179.32278174 -355.6875 190 C-351.08233344 193.4271007 -346.29994293 195.82854144 -341 198 C-339.58654297 198.62068359 -339.58654297 198.62068359 -338.14453125 199.25390625 C-329.71182507 202.32131648 -321.39708427 202.38451097 -312.5 202.4375 C-310.68447632 202.45272705 -310.68447632 202.45272705 -308.83227539 202.46826172 C-297.04603903 202.3551852 -285.47621506 200.62929589 -275 195 C-273.76830078 194.35224609 -273.76830078 194.35224609 -272.51171875 193.69140625 C-260.88860633 187.1831688 -255.02902158 178.49193784 -249 167 C-248.46826172 166.15804077 -248.46826172 166.15804077 -247.92578125 165.29907227 C-246.57510778 161.94482858 -246.59450517 158.61047379 -246.5234375 155.04296875 C-246.49922226 153.8729406 -246.49922226 153.8729406 -246.47451782 152.67927551 C-246.44688235 151.02431034 -246.42541725 149.36923229 -246.40966797 147.71411133 C-246.38682143 146.04904932 -246.34622562 144.38412237 -246.28662109 142.7199707 C-245.73699323 127.34727842 -249.47520702 117.39332256 -259.375 105.5 C-273.2608825 91.21128473 -290.09223357 87.13658175 -309.47045898 86.76757812 C-329.50413084 86.63171824 -349.15466452 89.96556196 -363.375 105.4375 Z M-155.6640625 106.09765625 C-166.50543493 119.56778955 -170.52689681 134.83172126 -169 152 C-166.98970558 165.7627849 -161.74853416 175.21939829 -152 185 C-151.29875 185.72445312 -150.5975 186.44890625 -149.875 187.1953125 C-137.74126508 198.92756355 -121.68603596 202.57058831 -105.3125 202.375 C-103.46084229 202.3586853 -103.46084229 202.3586853 -101.57177734 202.34204102 C-83.03178548 202.01927805 -66.95698569 198.68325496 -53.1796875 185.3125 C-40.51310924 171.87412306 -36.41041934 158.02729147 -36.7578125 139.91796875 C-37.2535031 126.98829669 -42.27652343 114.15525412 -51.2265625 104.61328125 C-68.44436258 88.95039263 -88.79255692 85.93273075 -111.24951172 86.84472656 C-128.51857947 87.81961801 -143.7720018 93.08067089 -155.6640625 106.09765625 Z M224.65625 106 C213.18319966 119.85424947 210.420358 133.94489156 211.125 151.625 C212.23477076 162.93078963 217.0626536 172.18475894 224 181 C224.62648438 181.8353125 225.25296875 182.670625 225.8984375 183.53125 C235.44458439 194.74531103 251.09356308 201.06058478 265.52319336 202.3034668 C269.27093521 202.43712664 273.00002742 202.4677821 276.75 202.4375 C277.408862 202.43412628 278.067724 202.43075256 278.74655151 202.42727661 C296.99525476 202.29199037 313.41400721 198.97970337 326.9375 185.6875 C331.50282333 180.81738005 335.06119438 175.98512851 338 170 C338.4846875 169.11828125 338.969375 168.2365625 339.46875 167.328125 C345.17708816 155.34061487 345.28050782 138.77740708 341.375 126.1875 C340.64208184 124.43262552 339.85050026 122.70100052 339 121 C338.31164062 119.56140625 338.31164062 119.56140625 337.609375 118.09375 C330.16949553 103.52724915 318.37729195 94.56785579 302.91796875 89.2890625 C277.02041518 82.01032036 243.60404813 85.979685 224.65625 106 Z " fill="#1ECA3D" transform="translate(417,0)"/>
</svg>
