<?xml version="1.0" encoding="UTF-8"?>
<svg version="1.1" xmlns="http://www.w3.org/2000/svg" width="1200" height="1705">
<path d="M0 0 C0.91858795 0.00054382 1.8371759 0.00108765 2.78359985 0.00164795 C57.63489461 0.15029483 110.16502514 19.75531783 152.6875 54.375 C153.57042725 55.09236328 153.57042725 55.09236328 154.47119141 55.82421875 C164.83700149 64.30452629 175.43991833 73.11996926 184.0390625 83.41796875 C185.89363903 85.61972904 187.85084249 87.70566567 189.8125 89.8125 C236.69072708 141.88167215 267.97292059 218.85271294 267.70703125 289.20703125 C267.70421143 290.18003174 267.7013916 291.15303223 267.69848633 292.15551758 C267.6930481 293.25416138 267.6930481 293.25416138 267.6875 294.375 C269.6386278 294.37085193 269.6386278 294.37085193 271.62917233 294.36662006 C302.52017328 294.30161865 333.41115574 294.25216451 364.30220869 294.22180401 C368.10601359 294.21805198 371.90981836 294.21416901 375.71362305 294.21020508 C376.84950608 294.20902468 376.84950608 294.20902468 378.00833625 294.20782044 C390.26281279 294.1947736 402.51724701 294.17112374 414.77169847 294.14354161 C427.34990732 294.11546731 439.92809404 294.09881946 452.50633293 294.09273452 C460.26510535 294.08862227 468.02375818 294.07564337 475.78249378 294.0512506 C481.7361952 294.03348843 487.68983555 294.0316395 493.64356422 294.03567696 C496.08281566 294.03485212 498.52207165 294.02889127 500.96129608 294.01738358 C504.29515872 294.00242762 507.62851233 294.00605812 510.96238708 294.01423645 C511.92447238 294.00549793 512.88655767 293.9967594 513.87779707 293.98775607 C522.22182792 294.04296822 529.90173171 295.54853568 536.07332563 301.52309575 C541.55101913 307.80752453 542.2652654 314.91322987 542.02682304 322.92902756 C542.0109907 323.96282057 541.99515836 324.99661358 541.97884624 326.06173365 C541.72113463 339.45917757 541.04447062 352.84642131 540.37221285 366.22830773 C540.17463385 370.18790376 539.98398143 374.14783498 539.79238021 378.10772395 C539.45681223 385.02378659 539.11694975 391.93962738 538.77415085 398.85533524 C538.26439418 409.13956008 537.76142924 419.42410956 537.25974041 429.70873073 C536.36321801 448.08286928 535.46003823 466.45667596 534.55400583 484.83034775 C533.76123825 500.90750728 532.97073824 516.98477636 532.18246078 533.06215668 C532.13006986 534.13063684 532.07767893 535.199117 532.0237004 536.29997535 C531.81100712 540.63777562 531.59832383 544.97557637 531.38565583 549.31337788 C529.39284233 589.96018322 527.39331739 630.60665595 525.3906708 671.25297787 C523.61300812 707.33375515 521.8409547 743.41480372 520.07373047 779.49609375 C518.08610347 820.07686186 516.09523042 860.65746845 514.09892929 901.23781085 C513.88600501 905.56624246 513.67308708 909.89467438 513.46017075 914.22310638 C513.38153344 915.82164739 513.38153344 915.82164739 513.3013075 917.45248215 C512.51099671 933.51899685 511.72311853 949.58562965 510.93640518 965.65232086 C510.04167223 983.9246504 509.14325578 1002.19679479 508.24005069 1020.46870759 C507.7351611 1030.68468246 507.23302728 1040.90078373 506.7349421 1051.11709267 C506.40144139 1057.95172708 506.06421104 1064.78617106 505.72402071 1071.62047574 C505.53065967 1075.50706282 505.33883195 1079.39370744 505.15154971 1083.28059259 C503.87512204 1109.72893756 503.87512204 1109.72893756 502.71902275 1121.74235153 C502.64846739 1122.49397059 502.57791203 1123.24558964 502.50521863 1124.01998504 C499.89677057 1148.74219629 488.98366959 1171.6362119 471.6875 1189.375 C470.8625 1190.24125 470.0375 1191.1075 469.1875 1192 C467.95 1193.175625 467.95 1193.175625 466.6875 1194.375 C466.0790625 1194.96667969 465.470625 1195.55835938 464.84375 1196.16796875 C437.48080945 1221.79594025 402.59635649 1223.85587276 367.22269305 1223.76040266 C363.11972801 1223.75270545 359.0167958 1223.76260633 354.91383559 1223.77013266 C347.74195865 1223.78090894 340.57014961 1223.78067549 333.39826965 1223.77299118 C322.73309231 1223.76159529 312.06797173 1223.76746997 301.4027947 1223.7766161 C282.34980248 1223.79237836 263.29684051 1223.79105815 244.24384543 1223.78237936 C227.57052001 1223.77482214 210.89720565 1223.77286751 194.22387886 1223.7764473 C192.56262273 1223.77679103 192.56262273 1223.77679103 190.86780586 1223.77714171 C186.37169653 1223.77807577 181.87558722 1223.77903098 177.3794779 1223.780021 C135.23415888 1223.78919047 93.08885908 1223.78088944 50.94354303 1223.76473031 C13.52704898 1223.75049334 -23.88941443 1223.75176908 -61.3059082 1223.76611328 C-103.37740261 1223.78218828 -145.44888004 1223.78854107 -187.5203771 1223.77927649 C-192.00781627 1223.77831439 -196.49525545 1223.77737586 -200.98269463 1223.7764473 C-202.08755634 1223.77621006 -203.19241806 1223.77597283 -204.33076044 1223.77572841 C-220.99139137 1223.77232068 -237.65201001 1223.77629806 -254.31263924 1223.78388596 C-273.26191328 1223.79247334 -292.21115244 1223.7902987 -311.16042215 1223.77404372 C-321.75648625 1223.76525329 -332.35247473 1223.76463315 -342.94853683 1223.77598225 C-350.03636451 1223.78273452 -357.12413187 1223.77847756 -364.21195065 1223.76546794 C-368.24345903 1223.75836789 -372.27481776 1223.75581503 -376.30632115 1223.76668589 C-409.47910023 1223.8494127 -438.49715697 1221.16492003 -465.3125 1199.375 C-466.01761719 1198.83488281 -466.72273438 1198.29476563 -467.44921875 1197.73828125 C-488.94196497 1180.4307351 -501.30880945 1151.26164983 -504.36332417 1124.45111465 C-504.48983454 1123.35181286 -504.48983454 1123.35181286 -504.61890068 1122.23030294 C-505.50327184 1114.1792164 -505.90071508 1106.1210671 -506.24931335 1098.03216553 C-506.32643215 1096.34953428 -506.40408992 1094.66692767 -506.4822309 1092.98434359 C-506.69366102 1088.39854307 -506.89752886 1083.81243407 -507.10007171 1079.22623362 C-507.32178894 1074.23685766 -507.55067332 1069.24780951 -507.77863407 1064.25871563 C-508.17519159 1055.55842715 -508.56723699 1046.85794468 -508.95626068 1038.15731621 C-509.53003441 1025.3251976 -510.11094059 1012.49340889 -510.69333197 999.66167887 C-511.78077794 975.69698088 -512.86024919 951.73192797 -513.9371444 927.76675385 C-514.76168797 909.4182618 -515.58820145 891.06985949 -516.41629028 872.7215271 C-516.47488326 871.42320217 -516.53347623 870.12487724 -516.59384475 868.78720913 C-516.89036124 862.21704642 -517.18691181 855.64688526 -517.48348534 849.07672513 C-518.07922679 835.8788594 -518.67479298 822.68098577 -519.27027893 809.48310852 C-519.32932884 808.17442976 -519.38837875 806.865751 -519.44921806 805.51741531 C-520.28783406 786.93103563 -521.12514746 768.34459761 -521.96166616 749.75812345 C-524.69873636 688.94771864 -527.46111868 628.13856956 -530.26500958 567.33120883 C-530.91120807 553.31559737 -531.55515261 539.29988385 -532.19734192 525.28408813 C-532.24133179 524.32411021 -532.28532166 523.36413228 -532.33064456 522.37506412 C-532.76417073 512.91395083 -533.19743651 503.45282565 -533.63035 493.99168431 C-533.83985581 489.41351873 -534.04948084 484.83535861 -534.25918579 480.25720215 C-534.30024698 479.36076147 -534.34130817 478.46432078 -534.38361364 477.54071523 C-535.04075076 463.19978207 -535.70606019 448.85923881 -536.37443732 434.5188256 C-537.0368535 420.30268452 -537.69047422 406.08616152 -538.33480847 391.8691892 C-538.71126345 383.56919079 -539.09464104 375.26958244 -539.48841799 366.97038738 C-539.77800148 360.851578 -540.05468522 354.73225871 -540.32624495 348.61261988 C-540.4374801 346.15185624 -540.55294197 343.69127924 -540.67306936 341.23093367 C-540.83520437 337.89799671 -540.98193711 334.56471927 -541.12486267 331.23091125 C-541.17472502 330.28247253 -541.22458736 329.3340338 -541.27596068 328.3568545 C-541.69274199 317.77220061 -540.42157943 308.53853619 -533.3125 300.375 C-526.09520571 294.25598962 -517.76498916 294.07982061 -508.74560547 294.13449097 C-507.70563132 294.13278212 -506.66565718 294.13107327 -505.59416866 294.12931263 C-502.122604 294.12602833 -498.65123425 294.13700409 -495.1796875 294.14794922 C-492.68592839 294.14851356 -490.19216895 294.14819632 -487.69841003 294.14706421 C-482.3362784 294.14660933 -476.974207 294.15226823 -471.61209106 294.16353989 C-463.85947656 294.17982594 -456.10688556 294.18500606 -448.3542558 294.18751587 C-435.77473138 294.19188811 -423.19523296 294.2051844 -410.61572266 294.22412109 C-398.39925262 294.2424921 -386.18278966 294.25664263 -373.96630859 294.26513672 C-372.83589645 294.26592489 -372.83589645 294.26592489 -371.68264771 294.26672898 C-367.9018428 294.26933914 -364.12103784 294.27186654 -360.34023285 294.27435279 C-328.99763632 294.29507061 -297.65507212 294.33043244 -266.3125 294.375 C-266.31459032 293.69040805 -266.31668064 293.0058161 -266.3188343 292.30047894 C-266.32046011 291.40135186 -266.32208591 290.50222479 -266.32376099 289.57585144 C-266.32585131 288.68500949 -266.32794163 287.79416754 -266.33009529 286.87633038 C-265.82100349 214.5043091 -232.74529528 138.72313648 -184.4375 85.71875 C-182.48755276 83.56807289 -180.58223871 81.38675029 -178.6875 79.1875 C-173.03340182 72.71453243 -166.88124082 66.90817426 -160.3125 61.375 C-159.77512207 60.91851074 -159.23774414 60.46202148 -158.68408203 59.99169922 C-123.73262698 30.4290268 -81.82318447 9.28791107 -36.3125 2.375 C-34.61492554 2.11227295 -34.61492554 2.11227295 -32.88305664 1.84423828 C-21.91107938 0.29916115 -11.07105348 -0.02479127 0 0 Z M-133.3125 136.375 C-166.55547484 173.94467588 -185.27789171 223.04727947 -191.3125 272.375 C-191.41111328 273.16084473 -191.50972656 273.94668945 -191.61132812 274.75634766 C-192.37013398 281.41447103 -192.3125 287.55838158 -192.3125 294.375 C-64.9325 294.375 62.4475 294.375 193.6875 294.375 C193.6875 258.18893946 184.56523678 221.8503012 168.6875 189.375 C168.28692383 188.54935547 167.88634766 187.72371094 167.47363281 186.87304688 C158.41469227 168.39529956 147.40869217 151.70921781 133.6875 136.375 C132.49833984 135.02148438 132.49833984 135.02148438 131.28515625 133.640625 C123.38116334 124.72329967 115.15946986 116.63119059 105.6875 109.375 C105.08824707 108.91577148 104.48899414 108.45654297 103.87158203 107.98339844 C26.92586169 49.78261326 -70.277364 68.24118642 -133.3125 136.375 Z M-149.77099609 506.67822266 C-177.42498184 537.11775401 -186.94614894 575.15444595 -185.3125 615.375 C-184.01231519 631.46878644 -178.53279011 647.04636227 -171.3125 661.375 C-170.67248047 662.7053125 -170.67248047 662.7053125 -170.01953125 664.0625 C-160.63318658 682.55992997 -145.62089284 698.79423981 -129.3125 711.375 C-128.52746094 712.02597656 -127.74242187 712.67695312 -126.93359375 713.34765625 C-87.95445222 745.64832872 -34.51823436 761.31311703 12.76660156 777.16638184 C48.58148522 789.17758278 81.42826191 803.80758745 109.6875 829.375 C110.36039063 829.96410156 111.03328125 830.55320312 111.7265625 831.16015625 C129.49233726 847.62086224 140.51459699 872.2710309 141.91015625 896.19140625 C142.50008418 922.43037447 132.9983318 945.62881582 115.14941406 964.87011719 C93.02778109 987.6419518 61.24418122 998.26198076 30.6875 1003.375 C30.00606934 1003.49359375 29.32463867 1003.6121875 28.62255859 1003.734375 C-33.73766899 1014.20304173 -100.158984 990.09080115 -150.625 954.3125 C-155.89467568 950.53561454 -160.89787307 946.51634287 -165.8125 942.28515625 C-168.60592523 940.15080479 -171.00144775 938.58708163 -174.3125 937.375 C-179.19020659 938.42775691 -181.27939844 939.94366232 -184.046875 944.0390625 C-184.69922119 944.9892627 -185.35156738 945.93946289 -186.02368164 946.91845703 C-186.6964917 947.93536621 -187.36930176 948.95227539 -188.0625 950 C-188.76044678 951.03366699 -189.45839355 952.06733398 -190.17749023 953.13232422 C-192.23978918 956.20209131 -194.27725623 959.28725463 -196.3125 962.375 C-197.41266097 964.01048357 -198.51291142 965.64590695 -199.61328125 967.28125 C-200.5366057 968.68569491 -201.45739525 970.09181142 -202.375 971.5 C-202.79813477 972.13115723 -203.22126953 972.76231445 -203.65722656 973.41259766 C-205.34539449 976.08077996 -206.31947031 977.89126053 -206.2734375 981.0859375 C-196.60035863 1004.12831236 -145.07692884 1026.45465721 -123.30859375 1035.60546875 C-53.61441755 1063.81429946 27.92917121 1074.13760306 99.11743164 1045.08129883 C118.98814553 1036.64808073 136.18377636 1025.35066765 151.6875 1010.375 C152.61304688 1009.51261719 153.53859375 1008.65023437 154.4921875 1007.76171875 C179.96005475 983.41212896 194.29887898 948.91572041 198.6875 914.375 C198.88472656 912.83005859 198.88472656 912.83005859 199.0859375 911.25390625 C199.39015369 908.28985388 199.56825739 905.35245179 199.6875 902.375 C199.72834717 901.37726563 199.72834717 901.37726563 199.77001953 900.359375 C201.04202531 864.26321114 190.27864347 831.79820738 166.6875 804.375 C165.97722656 803.54097656 165.26695312 802.70695312 164.53515625 801.84765625 C141.75637197 775.77356864 111.32379625 758.59548699 80.6875 743.375 C79.84155273 742.94880371 78.99560547 742.52260742 78.12402344 742.08349609 C52.00753309 728.95927242 24.0550375 719.21661547 -3.59765625 709.91796875 C-37.97053667 698.3323493 -72.82272923 685.03696543 -99.3125 659.375 C-99.993125 658.76785156 -100.67375 658.16070313 -101.375 657.53515625 C-116.6839589 643.39230945 -125.26318146 621.84129122 -126.28857422 601.28637695 C-126.95080234 577.17365486 -116.84195763 555.00309028 -100.71484375 537.56640625 C-95.09353211 531.6651289 -89.25627577 526.64441921 -82.3125 522.375 C-81.45229248 521.84543701 -81.45229248 521.84543701 -80.57470703 521.30517578 C-39.23809062 496.17311317 9.96421692 497.85319194 55.73828125 508.58984375 C84.39582597 515.72909173 110.98514258 527.58135443 135.87109375 543.3984375 C139.25253269 545.53884313 142.06042374 547.20617178 145.9375 548.25 C154.91880274 545.39231276 161.95210751 528.10187751 166.6875 520.375 C167.06600098 519.75995605 167.44450195 519.14491211 167.83447266 518.51123047 C168.74210258 517.01895005 169.62261144 515.510259 170.5 514 C171.19029297 512.81277344 171.19029297 512.81277344 171.89453125 511.6015625 C172.94237833 508.65933178 172.7879068 507.3003613 171.6875 504.375 C168.34552959 500.43147492 164.43111727 497.63219308 160.0625 494.9375 C159.04627563 494.31004883 159.04627563 494.31004883 158.00952148 493.66992188 C76.99607856 444.7174938 -41.76016992 422.88912734 -149.77099609 506.67822266 Z " fill="#EE4C2C" transform="translate(602.3125,8.625)"/>
<path d="M0 0 C1.20269531 -0.00257812 2.40539062 -0.00515625 3.64453125 -0.0078125 C4.90652344 -0.00007813 6.16851563 0.00765625 7.46875 0.015625 C8.73074219 0.00789063 9.99273438 0.00015625 11.29296875 -0.0078125 C12.49566406 -0.00523438 13.69835937 -0.00265625 14.9375 0 C16.04544922 0.00225586 17.15339844 0.00451172 18.29492188 0.00683594 C20.96875 0.265625 20.96875 0.265625 22.96875 2.265625 C23.19580078 4.14501953 23.19580078 4.14501953 23.1640625 6.3984375 C23.15761719 7.20410156 23.15117188 8.00976562 23.14453125 8.83984375 C23.12777344 9.68160156 23.11101563 10.52335937 23.09375 11.390625 C23.08472656 12.24011719 23.07570313 13.08960938 23.06640625 13.96484375 C23.04280647 16.06522384 23.00693483 18.16545944 22.96875 20.265625 C23.505 19.853125 24.04125 19.440625 24.59375 19.015625 C44.78040167 4.14125009 67.63378085 -1.97985524 92.65625 0.890625 C116.95691594 4.80573229 136.75188132 16.93118789 151.875 36.2734375 C165.46448572 55.69423239 170.60112957 78.87553299 167.5078125 102.37890625 C163.34921576 125.5447363 150.83266198 146.25892867 131.4230957 159.76513672 C111.15018322 173.30588133 87.40144967 178.52182358 63.24609375 174.6171875 C51.00712189 172.17912867 39.2742546 167.52808557 29.22021484 160.12988281 C28.23515961 159.40698059 27.25010437 158.68407837 26.23519897 157.93927002 C25.48727081 157.38696716 24.73934265 156.83466431 23.96875 156.265625 C23.96451806 156.81523077 23.96028612 157.36483654 23.95592594 157.93109703 C23.85270655 171.29251479 23.74401936 184.65387838 23.62941074 198.01520348 C23.5741536 204.47658935 23.52072915 210.93797972 23.47143555 217.39941406 C23.42383316 223.63044917 23.37149189 229.86142782 23.31580925 236.09239578 C23.29536697 238.47431667 23.27665704 240.85625306 23.25967598 243.23820114 C23.23567342 246.56429417 23.2056132 249.89027974 23.17407227 253.21630859 C23.1683168 254.20964706 23.16256134 255.20298553 23.15663147 256.22642517 C23.14684265 257.12948898 23.13705383 258.0325528 23.12696838 258.96298218 C23.12051583 259.75019339 23.11406328 260.53740459 23.1074152 261.34847069 C22.96875 263.265625 22.96875 263.265625 21.96875 265.265625 C17.8570244 265.29028246 13.74532722 265.30846459 9.63354492 265.32055664 C8.23379772 265.3255958 6.8340558 265.33242716 5.43432617 265.34106445 C3.42629223 265.3531482 1.41822043 265.35832307 -0.58984375 265.36328125 C-1.79954834 265.36851807 -3.00925293 265.37375488 -4.25561523 265.37915039 C-7.03125 265.265625 -7.03125 265.265625 -8.03125 264.265625 C-8.1295574 262.86534582 -8.15863976 261.46013794 -8.15988445 260.0564127 C-8.1631089 259.14300541 -8.16633335 258.22959811 -8.1696555 257.28851181 C-8.1681069 256.27336044 -8.1665583 255.25820907 -8.16496277 254.21229553 C-8.16722833 253.14296152 -8.16949388 252.07362751 -8.17182809 250.97188944 C-8.17820024 247.35893445 -8.17733668 243.74601666 -8.17651367 240.13305664 C-8.17950315 237.55490571 -8.18290519 234.97675523 -8.18669128 232.39860535 C-8.19501407 226.10480453 -8.19774686 219.81101307 -8.19830366 213.51720721 C-8.19877805 208.40378312 -8.20082892 203.29036212 -8.20400429 198.17693901 C-8.21281528 183.69454447 -8.21742297 169.21215736 -8.21667381 154.72976012 C-8.21663386 153.94825813 -8.2165939 153.16675614 -8.21655273 152.36157227 C-8.21651185 151.57912132 -8.21647097 150.79667037 -8.21642885 149.99050879 C-8.21602225 137.30458584 -8.22559428 124.61869255 -8.2396911 111.93277819 C-8.25403563 98.92177197 -8.26096235 85.91078024 -8.26009732 72.89976591 C-8.25976469 65.58911509 -8.26254076 58.27849536 -8.27327538 50.96785164 C-8.28330144 44.09545491 -8.28306475 37.22312507 -8.27575874 30.35072517 C-8.27470763 27.82146102 -8.27710669 25.29219286 -8.2831192 22.76293564 C-8.29076806 19.32385741 -8.28624182 15.88501089 -8.27848816 12.44593811 C-8.28363172 11.43301746 -8.28877529 10.42009681 -8.29407471 9.37648159 C-8.28947592 8.46046655 -8.28487712 7.54445151 -8.28013897 6.60067844 C-8.28035634 5.80608615 -8.28057371 5.01149385 -8.28079766 4.19282299 C-7.65622722 -0.63058785 -3.94737744 0.00803713 0 0 Z M36.44921875 51.30078125 C25.50892746 64.37744438 22.00108195 78.49271213 22.96875 95.265625 C24.96045439 108.90373644 31.25144178 119.68566389 40.96875 129.265625 C41.81566406 130.12800781 41.81566406 130.12800781 42.6796875 131.0078125 C53.27508007 140.98298697 67.83007116 144.79090932 82.03930664 144.61499023 C96.48563918 144.10564781 109.48798115 138.4110001 119.9765625 128.421875 C131.79504345 115.63010738 136.66229435 100.92628551 136.28125 83.8125 C135.52900417 68.78012077 127.68931266 55.44667883 116.96875 45.265625 C92.65657664 24.47871678 57.80833828 28.83209707 36.44921875 51.30078125 Z " fill="#EE4D2C" transform="translate(628.03125,1432.734375)"/>
<path d="M0 0 C1.4375 1.25390625 1.4375 1.25390625 3.25 3.69140625 C2.54455905 12.2430782 -4.75104334 19.92963572 -9.87890625 26.42578125 C-11.75 27.69140625 -11.75 27.69140625 -14.34375 27.72265625 C-19.16098941 26.26422597 -23.30127546 23.87907705 -27.6875 21.44140625 C-48.50372512 10.25313465 -73.14023187 3.38042366 -96.66015625 9.66015625 C-109.56350355 13.96670958 -120.04304021 21.25560438 -126.6328125 33.35546875 C-130.56662108 41.58070488 -131.00023954 49.62253812 -128.1875 58.25390625 C-121.54038443 74.55079994 -106.37782326 81.95809445 -91.11035156 88.70169067 C-84.99163435 91.26732108 -78.67412114 93.2872042 -72.36816406 95.33633423 C-58.12205591 99.98159431 -44.09801413 104.80920081 -30.75 111.69140625 C-30.10820801 112.01915039 -29.46641602 112.34689453 -28.80517578 112.68457031 C-7.9653595 123.4991516 8.96883375 138.5173198 16.4375 161.31640625 C20.69555471 180.72699801 17.5547416 201.39882792 7.5 218.50390625 C-6.15247191 239.26175388 -25.45282026 249.76907652 -49.39941406 255.03613281 C-67.76602568 258.68833397 -87.54170167 257.83740057 -105.75 253.69140625 C-106.57773926 253.50336426 -107.40547852 253.31532227 -108.25830078 253.12158203 C-126.8110642 248.72391588 -144.42427183 241.12232531 -159.75 229.69140625 C-160.72066406 229.01078125 -161.69132812 228.33015625 -162.69140625 227.62890625 C-163.61824219 226.94828125 -164.54507813 226.26765625 -165.5 225.56640625 C-166.31984375 224.96570312 -167.1396875 224.365 -167.984375 223.74609375 C-169.75 221.69140625 -169.75 221.69140625 -170.3125 218.921875 C-169.54782123 214.53028235 -167.55959376 211.71305651 -165 208.12890625 C-164.5565625 207.48244141 -164.113125 206.83597656 -163.65625 206.16992188 C-161.1586337 202.55939713 -158.5380937 199.08532405 -155.75 195.69140625 C-149.72722364 196.06189249 -146.12029698 198.868798 -141.375 202.25390625 C-126.91919255 212.16671213 -112.71998895 218.29808185 -95.75 222.69140625 C-94.74453125 222.95953125 -93.7390625 223.22765625 -92.703125 223.50390625 C-73.0150048 227.90621884 -50.76877397 224.48483593 -33.75 213.69140625 C-27.43719959 208.98010823 -22.17331381 203.84418388 -18.75 196.69140625 C-18.43289062 196.02882813 -18.11578125 195.36625 -17.7890625 194.68359375 C-14.2804953 185.96045878 -14.4234917 176.17349053 -17.75 167.44140625 C-26.09638116 149.98355898 -42.95211979 140.22291435 -60.6328125 133.88549805 C-65.1724013 132.31616377 -69.73358712 130.81382785 -74.29980469 129.32400513 C-139.9134799 107.84964442 -139.9134799 107.84964442 -156.46484375 78.66796875 C-164.48798055 62.46476337 -166.22083927 44.98513308 -160.75 27.69140625 C-152.89731577 7.62343543 -138.72601674 -6.80358779 -119.23095703 -15.72753906 C-82.77533056 -31.38799643 -31.68261262 -23.69123935 0 0 Z " fill="#EE4C2C" transform="translate(178.75,1352.30859375)"/>
<path d="M0 0 C2.765625 -0.35644531 2.765625 -0.35644531 6.25 -0.328125 C8.12171875 -0.32039063 8.12171875 -0.32039063 10.03125 -0.3125 C11.99578125 -0.2815625 11.99578125 -0.2815625 14 -0.25 C15.96453125 -0.24226563 15.96453125 -0.24226563 17.96875 -0.234375 C27.69196429 -0.15401786 27.69196429 -0.15401786 30 1 C30 40.93 30 80.86 30 122 C34.29 119.36 38.58 116.72 43 114 C47.0477001 112.10264058 50.81205073 110.44904142 55 109 C55.91136719 108.6803125 56.82273437 108.360625 57.76171875 108.03125 C78.98038268 101.91211594 102.18037624 105.49379189 121.3046875 115.86328125 C140.83778799 126.92401227 154.62679649 144.17718091 160.75 165.8125 C162.61103002 172.96448166 163.14539948 179.67034686 163.12939453 187.02856445 C163.13202301 188.51976555 163.13202301 188.51976555 163.13470459 190.04109192 C163.13909335 193.31517296 163.13619671 196.58919969 163.1328125 199.86328125 C163.13348613 202.13917552 163.13445664 204.41506972 163.13571167 206.69096375 C163.13718438 211.45291837 163.13504677 216.2148542 163.13037109 220.97680664 C163.12465784 227.09498485 163.12796558 233.21311934 163.13394356 239.33129597 C163.13754686 244.02626376 163.13641193 248.72122109 163.13381577 253.41618919 C163.13314669 255.67335198 163.13397423 257.9305157 163.13629532 260.18767738 C163.1388198 263.33128021 163.13498489 266.47481079 163.12939453 269.6184082 C163.13141876 270.55916199 163.13344299 271.49991577 163.13552856 272.46917725 C163.11426572 278.88573428 163.11426572 278.88573428 162 280 C159.79349344 280.10012401 157.58377614 280.1308118 155.375 280.1328125 C154.71290527 280.13376923 154.05081055 280.13472595 153.36865234 280.13571167 C151.96647039 280.13639326 150.5642853 280.13454042 149.16210938 280.13037109 C147.00904287 280.12502246 144.85618498 280.1303167 142.703125 280.13671875 C141.34374954 280.13605796 139.9843742 280.13477679 138.625 280.1328125 C137.37976563 280.13168457 136.13453125 280.13055664 134.8515625 280.12939453 C132 280 132 280 131 279 C130.89060743 276.05556703 130.84576184 273.1337357 130.84228516 270.18847656 C130.83720444 269.263116 130.83212372 268.33775543 130.82688904 267.38435364 C130.81615579 265.36545013 130.80754731 263.3465345 130.80076981 261.32761383 C130.78899786 258.12302935 130.76954392 254.91858068 130.74765015 251.71405029 C130.68601575 242.59896439 130.63219657 233.48388806 130.59863281 224.36865234 C130.57756546 218.79768209 130.54215297 213.22695226 130.49787521 207.6561203 C130.48379513 205.54008589 130.47501101 203.42400885 130.47182083 201.30792999 C130.44191686 183.35248044 129.62386981 166.60131175 116.75 152.62109375 C106.38338819 143.01809397 92.92849231 137.36259604 78.72265625 137.7578125 C65.19868741 138.96080542 52.40499334 144.13408469 43.0703125 154.2265625 C40.54760913 157.60603305 38.50486814 161.07451649 36.5625 164.8125 C36.23209717 165.43954834 35.90169434 166.06659668 35.5612793 166.71264648 C29.60316954 179.05789982 30.67716462 193.34331051 30.62109375 206.69921875 C30.60489571 208.78718323 30.58771334 210.87514029 30.56959534 212.96308899 C30.52419427 218.42219625 30.48922604 223.88131368 30.45739746 229.34051514 C30.40522707 238.11618379 30.34053458 246.8917447 30.26918221 255.66727638 C30.24631241 258.73241302 30.23007614 261.79753558 30.21446228 264.86271667 C30.2010661 266.7244788 30.18745222 268.58623938 30.17358398 270.44799805 C30.16966393 271.73278046 30.16966393 271.73278046 30.16566467 273.04351807 C30.1136535 278.8863465 30.1136535 278.8863465 29 280 C24.88422411 280.21789186 20.76535077 280.18579188 16.64428711 280.18530273 C14.57449736 280.18748734 12.50524207 280.20563491 10.43554688 280.22460938 C9.13810547 280.22654297 7.84066406 280.22847656 6.50390625 280.23046875 C5.30580322 280.23457764 4.1077002 280.23868652 2.87329102 280.24291992 C0 280 0 280 -2 278 C-2.25069833 275.99174696 -2.25069833 275.99174696 -2.25168228 273.46750736 C-2.25689778 272.50744158 -2.26211327 271.54737579 -2.26748681 270.55821711 C-2.26302537 269.49607837 -2.25856392 268.43393963 -2.25396729 267.33961487 C-2.25708727 266.21704582 -2.26020725 265.09447677 -2.26342177 263.93789047 C-2.27144246 260.15067997 -2.26506227 256.3636279 -2.25878906 252.57641602 C-2.26039625 249.87166001 -2.26498429 247.16691087 -2.26940918 244.4621582 C-2.27832111 237.86267344 -2.27637311 231.26323407 -2.2705839 224.6637475 C-2.26607409 219.3014976 -2.26545155 213.93926045 -2.26763153 208.5770092 C-2.267938 207.81492201 -2.26824446 207.05283482 -2.26856022 206.26765407 C-2.26919964 204.71965933 -2.26984807 203.17166459 -2.2705054 201.62366986 C-2.27621406 187.09406119 -2.26964261 172.56447772 -2.25890467 158.03487318 C-2.24997046 145.55961311 -2.25151908 133.08439026 -2.26074219 120.60913086 C-2.27143846 106.13441016 -2.27566279 91.65971158 -2.26951766 77.18498749 C-2.26888054 75.64226052 -2.2682518 74.09953354 -2.26763153 72.55680656 C-2.26732298 71.79768835 -2.26701443 71.03857014 -2.26669653 70.25644835 C-2.26496752 64.89927299 -2.26788915 59.54211162 -2.27259064 54.18493843 C-2.27819242 47.65820279 -2.27669796 41.13151526 -2.26602915 34.60478515 C-2.26076261 31.27279046 -2.25980369 27.94094279 -2.26532745 24.60893822 C-2.2707579 21.00166719 -2.2639791 17.39462505 -2.25396729 13.78736877 C-2.25842873 12.72746076 -2.26289017 11.66755274 -2.26748681 10.5755263 C-2.26227132 9.61285277 -2.25705582 8.65017923 -2.25168228 7.65833378 C-2.25135758 6.82517236 -2.25103287 5.99201094 -2.25069833 5.1336022 C-2 3 -2 3 0 0 Z " fill="#EE4C2C" transform="translate(226,1329)"/>
<path d="M0 0 C18.61874677 14.93893546 30.32385509 35.20615711 33 59 C33.21371347 61.70995417 33.31849401 64.40757546 33.375 67.125 C33.43107422 68.15947266 33.43107422 68.15947266 33.48828125 69.21484375 C33.5568826 73.20134447 33.15903906 74.80573405 30.6015625 77.9296875 C27.03028669 80.77169378 25.38475375 81.12750169 20.90011597 81.15821838 C19.82035492 81.1680072 18.74059387 81.17779602 17.62811279 81.18788147 C16.43840881 81.19363693 15.24870483 81.1993924 14.02294922 81.20532227 C12.14982559 81.22017166 12.14982559 81.22017166 10.23886108 81.23532104 C6.80934188 81.26154483 3.37984641 81.28339197 -0.0497117 81.30332303 C-3.63187085 81.32516594 -7.21398732 81.35256291 -10.79611206 81.37937927 C-17.58172146 81.42932912 -24.36735452 81.47425943 -31.15301025 81.51740164 C-38.87724249 81.56675445 -46.60143194 81.62167982 -54.3256228 81.67708123 C-70.21704233 81.79093645 -86.10850119 81.89776776 -102 82 C-101.24432114 84.05739908 -100.47949324 86.11143891 -99.7109375 88.1640625 C-99.28603027 89.3082666 -98.86112305 90.4524707 -98.42333984 91.63134766 C-93.30470552 103.74574156 -83.62012924 113.10573155 -72 119 C-51.47582049 127.23872524 -29.76736694 126.8788409 -9.31762695 118.55102539 C-2.47079404 115.5465505 3.46536945 111.20130586 8.98828125 106.19921875 C11 105 11 105 13.5 104.99609375 C16.85557536 106.34356698 17.9726305 108.0909322 20 111.0625 C20.680625 112.05636719 21.36125 113.05023437 22.0625 114.07421875 C22.701875 115.03972656 23.34125 116.00523437 24 117 C24.53625 117.76957031 25.0725 118.53914063 25.625 119.33203125 C27.50530505 122.12577995 28.85881465 124.39290301 29.625 127.6875 C27.75652883 134.60084334 18.50130543 139.47279659 12.6875 142.875 C-12.77437904 157.34389976 -44.39638233 160.46499315 -72.671875 153.03515625 C-93.68408526 146.90681901 -112.09927664 132.92835965 -123.18457031 113.97460938 C-128.57553649 104.08267315 -131.75473156 94.01069496 -134 83 C-134.19207031 82.18660156 -134.38414062 81.37320312 -134.58203125 80.53515625 C-138.06349666 59.4186044 -131.72069748 36.49611363 -120 19 C-105.98904065 -0.26161473 -87.53750773 -11.72135256 -64.1875 -16.5859375 C-41.08659704 -19.58679009 -18.54594365 -14.20984978 0 0 Z M-89 29 C-90.73570825 31.07239423 -92.25263208 33.25133946 -93.75 35.5 C-94.13542969 36.05558594 -94.52085937 36.61117188 -94.91796875 37.18359375 C-97.74578184 41.34214241 -100 44.90211613 -100 50 C-67.33 50 -34.66 50 -1 50 C-3.72938731 41.81183808 -5.61824101 38.09783503 -11 32 C-11.54785156 31.36964844 -12.09570312 30.73929688 -12.66015625 30.08984375 C-21.32323993 20.77139677 -34.05463281 14.56840354 -46.75 13.76171875 C-62.97771912 13.33763945 -77.02096186 17.52876675 -89 29 Z " fill="#EE4C2C" transform="translate(960,1450)"/>
<path d="M0 0 C18.09399791 14.62141245 30.15919681 34.12058452 33.09375 57.5 C33.34537536 60.68861844 33.47246992 63.86479905 33.53125 67.0625 C33.56484619 68.20585815 33.56484619 68.20585815 33.59912109 69.37231445 C33.58325646 73.1242998 33.23484177 75.28010543 31.19140625 78.46484375 C28.01676164 81.54489932 26.27229899 81.62444519 21.9559021 81.62025452 C20.3236393 81.62231651 20.3236393 81.62231651 18.65840149 81.62442017 C17.45934677 81.62082489 16.26029205 81.61722961 15.02490234 81.61352539 C13.76639969 81.61367142 12.50789703 81.61381744 11.21125793 81.6139679 C7.75486084 81.61425548 4.29849826 81.60836508 0.8421092 81.60139394 C-2.7680497 81.59515387 -6.37820934 81.59455608 -9.9883728 81.59336853 C-16.82713714 81.59025715 -23.66588554 81.58204634 -30.50464284 81.57201904 C-38.28930311 81.56085193 -46.07396414 81.55534594 -53.85863042 81.55032361 C-69.87451295 81.53986358 -85.89037944 81.52226785 -101.90625 81.5 C-101.14481514 83.54892444 -100.37653127 85.59530424 -99.60546875 87.640625 C-99.17838623 88.78047852 -98.75130371 89.92033203 -98.3112793 91.09472656 C-92.08565426 106.18334828 -80.78480506 115.55321848 -66.01171875 121.71777344 C-47.17454744 128.71618448 -25.74752331 126.5544255 -7.65844727 118.48364258 C-0.84469967 115.22577971 5.73593245 110.85781755 11.09375 105.5 C13.37109375 105.05859375 13.37109375 105.05859375 16.09375 105.5 C17.89520375 107.52018 19.23808007 109.29823129 20.65625 111.5625 C21.04538574 112.1601416 21.43452148 112.7577832 21.83544922 113.37353516 C22.93510005 115.07366843 24.01503335 116.78650781 25.09375 118.5 C25.59003906 119.21800781 26.08632812 119.93601562 26.59765625 120.67578125 C28.48382924 123.53461488 29.09877237 125.57031315 29.34375 129 C25.99118031 138.38719514 14.65047742 143.41408864 6.09375 147.5 C-19.70146604 158.83445031 -52.48704895 161.37347391 -78.93920898 151.08422852 C-91.446541 145.92755059 -101.42665011 139.10712814 -110.90625 129.5 C-111.57269531 128.83226562 -112.23914062 128.16453125 -112.92578125 127.4765625 C-129.67852322 109.55150676 -134.7232806 86.96128369 -134.1875 63.22265625 C-133.31563935 40.93571831 -122.73483968 19.29087935 -106.41308594 4.11132812 C-76.13166327 -22.24862162 -32.12778494 -23.53916917 0 0 Z M-90.90625 32.5 C-95.41052323 38.41705265 -97.83966 43.26693498 -99.90625 50.5 C-67.23625 50.5 -34.56625 50.5 -0.90625 50.5 C-3.20233478 39.0195761 -11.25289923 29.83477534 -20.65625 23.25 C-43.94294234 8.37807227 -72.15438635 12.44850223 -90.90625 32.5 Z " fill="#EE4C2C" transform="translate(1157.90625,1449.5)"/>
<path d="M0 0 C15.84605254 14.08102193 27.2241609 34.0569397 28.60205078 55.44970703 C29.72469019 80.84389101 24.59131576 103.5109838 7.109375 122.83984375 C-9.20031567 140.30755308 -30.60406244 150.55596307 -54.4921875 151.8671875 C-80.48692291 152.68300375 -104.18993601 143.82868189 -123.18408203 126.01513672 C-139.52220662 110.04326081 -147.6228281 87.86379483 -147.890625 65.33984375 C-147.79424943 40.92550309 -138.09138475 19.81507812 -121.30859375 2.28125 C-88.28451085 -29.31890893 -34.35258894 -29.33575046 0 0 Z M-102.578125 28.65234375 C-114.08718798 42.34610166 -116.89800511 57.29969653 -115.578125 74.65234375 C-113.06508987 88.56737826 -105.13662577 101.10834389 -93.90625 109.6953125 C-79.17826676 119.45156128 -63.42363641 123.06753131 -45.953125 119.52734375 C-30.62517192 115.47704827 -18.60042913 106.40521726 -9.97265625 93.1171875 C-2.18919696 79.3598687 -0.74546731 64.84042155 -4.67797852 49.63745117 C-8.71141922 35.52962512 -17.98576011 24.52226165 -30.328125 16.71484375 C-54.84896248 3.55269099 -83.67965993 8.38732301 -102.578125 28.65234375 Z " fill="#EE4D2C" transform="translate(561.578125,1454.34765625)"/>
</svg>
