<?xml version="1.0" encoding="UTF-8"?>
<svg version="1.1" xmlns="http://www.w3.org/2000/svg" width="2560" height="557">
<path d="M0 0 C1.2048555 0.00650322 1.2048555 0.00650322 2.43405151 0.01313782 C3.34672287 0.0214991 3.34672287 0.0214991 4.27783203 0.0300293 C4.34665898 36.47242884 4.39944216 72.91481689 4.43102802 109.35726816 C4.43477966 113.67006365 4.43866267 117.982859 4.44262695 122.2956543 C4.44341388 123.15417114 4.44420082 124.01268798 4.44501159 124.89722048 C4.45802758 138.75631057 4.48166018 152.61536291 4.50929042 166.4744307 C4.53745103 180.7194709 4.55403069 194.96449148 4.56009752 209.20955837 C4.56419198 217.98323526 4.57707299 226.75680543 4.60158143 235.53044944 C4.61757055 241.56566741 4.62220298 247.60083109 4.61833616 253.63606866 C4.61643484 257.10612365 4.61912463 260.57599362 4.63544846 264.04601479 C4.82443963 311.23866816 -5.61751569 354.00790142 -38.72216797 389.0300293 C-39.46853516 389.84084961 -40.21490234 390.65166992 -40.98388672 391.48706055 C-67.61489188 419.43861142 -104.34564146 430.80767374 -142.05126953 431.98217773 C-178.1736298 432.62934251 -214.24497713 422.0060942 -241.72216797 398.0300293 C-242.68638672 397.19858398 -243.65060547 396.36713867 -244.64404297 395.51049805 C-275.58712958 368.3230237 -291.95295478 328.8871033 -295.34716797 288.3425293 C-297.85672995 247.14008433 -288.4036918 206.39057967 -260.80810547 174.6237793 C-257.87243273 171.332904 -254.82656624 168.16144945 -251.72216797 165.0300293 C-250.87267578 164.16764648 -250.02318359 163.30526367 -249.14794922 162.41674805 C-231.86409598 145.82107273 -209.89521561 134.63125712 -186.72216797 129.0300293 C-185.51947266 128.71163086 -184.31677734 128.39323242 -183.07763672 128.06518555 C-143.55962451 119.23366274 -103.0426828 129.36977188 -67.72216797 147.0300293 C-67.72216797 168.8100293 -67.72216797 190.5900293 -67.72216797 213.0300293 C-71.10089493 213.0300293 -72.00082601 212.45287805 -74.79248047 210.6862793 C-75.59782227 210.18555908 -76.40316406 209.68483887 -77.23291016 209.16894531 C-78.09561523 208.62810303 -78.95832031 208.08726074 -79.84716797 207.5300293 C-100.2546923 195.04670324 -121.62818871 185.5724396 -145.97216797 185.7175293 C-146.97578369 185.72316895 -147.97939941 185.72880859 -149.01342773 185.73461914 C-172.30598004 186.11238675 -193.26430787 194.40731585 -209.72216797 211.0300293 C-226.58046388 229.06809546 -233.14234097 253.07418857 -233.03466797 277.2800293 C-233.03047852 278.56256592 -233.02628906 279.84510254 -233.02197266 281.16650391 C-232.91460852 290.1582503 -232.28512774 298.36899283 -229.72216797 307.0300293 C-229.44373047 308.0406543 -229.16529297 309.0512793 -228.87841797 310.0925293 C-225.31534751 321.88752116 -219.77170508 332.69329144 -211.72216797 342.0300293 C-211.19107422 342.70420898 -210.65998047 343.37838867 -210.11279297 344.07299805 C-196.51133016 360.81575108 -174.31736798 369.14706608 -153.47216797 371.4050293 C-129.75388995 373.53487736 -108.57963744 367.6182878 -90.09326172 352.1784668 C-70.87511845 334.76499266 -61.8667276 310.3110434 -58.72216797 285.0300293 C-58.63909582 284.38564879 -58.55602367 283.74126829 -58.47043419 283.07736111 C-57.34496267 272.85858024 -57.56936458 262.58299457 -57.56445312 252.31738281 C-57.55977855 250.11850891 -57.55463393 247.91963596 -57.54905701 245.72076416 C-57.53782192 241.00207677 -57.52936589 236.28339552 -57.52293777 231.56469917 C-57.51221086 224.09600126 -57.49195505 216.62734787 -57.46981812 209.15867615 C-57.43933862 198.68212334 -57.41009989 188.20556934 -57.38427734 177.72900391 C-57.38263916 177.06548382 -57.38100098 176.40196374 -57.37931316 175.71833699 C-57.35302205 164.96361713 -57.3343771 154.20889386 -57.31768544 143.45415545 C-57.30022824 132.38410726 -57.27116084 121.3141277 -57.23279607 110.24413246 C-57.21176969 104.03995406 -57.19627486 97.83587064 -57.1939888 91.63165474 C-57.19183586 85.79648998 -57.17590049 79.9615234 -57.14959908 74.12641907 C-57.14243094 71.99159781 -57.14029298 69.85675249 -57.14370155 67.72192192 C-57.16964956 48.37294486 -55.08816951 31.88344743 -41.06982422 17.2800293 C-29.73531728 6.41700767 -15.97012031 -0.1121062 0 0 Z " fill="#42B449" transform="translate(2059.72216796875,1.969970703125)"/>
<path d="M0 0 C0.99435059 0.22478027 0.99435059 0.22478027 2.00878906 0.45410156 C39.1351713 8.9966155 70.75573943 31.7461269 91 64 C91.37366699 64.59232422 91.74733398 65.18464844 92.13232422 65.79492188 C108.92828039 92.86900048 115.47090853 124.31210129 115.3125 155.875 C115.31100952 156.61601959 115.30951904 157.35703918 115.3079834 158.12051392 C115.26751817 169.33889317 114.64464332 180.06804765 112 191 C111.7215625 192.26714844 111.443125 193.53429687 111.15625 194.83984375 C102.5846363 230.64110958 78.00994762 261.61418619 47.625 281.6875 C37.91094353 287.61520161 27.83103204 292.6121073 17.0625 296.3125 C16.08204712 296.65776733 16.08204712 296.65776733 15.08178711 297.01000977 C1.02933377 301.58128977 -13.21743715 302.51981364 -27.875 302.375 C-28.70761353 302.37067963 -29.54022705 302.36635925 -30.39807129 302.36190796 C-42.47923269 302.28844026 -54.21826391 301.89807523 -66 299 C-66.73976074 298.82839355 -67.47952148 298.65678711 -68.24169922 298.47998047 C-83.94705914 294.77622962 -97.55504807 288.22247597 -112 281 C-112 259.22 -112 237.44 -112 215 C-107.16174409 216.61275197 -104.25746893 217.93084493 -100.125 220.625 C-73.32449592 237.58240985 -42.9558281 247.46631092 -11.125 240.3125 C10.3499355 234.95454431 28.04275153 222.53698581 39.91308594 203.83056641 C54.22424182 179.72790539 56.41159428 148.87239905 50 122 C46.43369719 108.09644199 40.19821037 95.9778175 31 85 C30.36449219 84.17242187 29.72898437 83.34484375 29.07421875 82.4921875 C16.5711683 67.46968998 -4.94418454 58.86350246 -24 57 C-48.02082635 55.54380863 -70.43389906 58.92929414 -89.125 75.3125 C-90.7670594 76.85706213 -92.39278119 78.41921571 -94 80 C-94.70125 80.68835938 -95.4025 81.37671875 -96.125 82.0859375 C-107.22015634 93.74451975 -113.54014212 109.04581534 -117.6875 124.375 C-117.99143677 125.48814575 -117.99143677 125.48814575 -118.30151367 126.6237793 C-122.42443027 142.64931704 -122.30594791 158.48801116 -122.31884766 174.92529297 C-122.32706724 177.64654329 -122.33824129 180.36777966 -122.34928894 183.08901978 C-122.37144736 188.92410648 -122.38652888 194.75917598 -122.39665604 200.5942955 C-122.41130824 209.03065215 -122.4368629 217.46694881 -122.46498732 225.90327002 C-122.51033718 239.59418879 -122.54700049 253.28511626 -122.578125 266.97607422 C-122.6083591 280.26710535 -122.64273152 293.55811527 -122.68261719 306.84912109 C-122.68630951 308.08022007 -122.68630951 308.08022007 -122.69007643 309.33618973 C-122.70245197 313.45400472 -122.71490832 317.57181946 -122.72740483 321.68963408 C-122.83079564 355.79306052 -122.92005694 389.89651057 -123 424 C-124.74605532 424.01804458 -126.49216512 424.03086166 -128.23828125 424.04150391 C-129.21063721 424.04920807 -130.18299316 424.05691223 -131.18481445 424.06484985 C-145.50475074 423.73497967 -158.50027406 417.1067129 -168.71484375 407.41015625 C-184.34905576 390.92073948 -185.30382472 371.99354926 -185.25878906 350.52197266 C-185.26150246 348.34755334 -185.26506535 346.17313494 -185.26940918 343.99871826 C-185.2784993 338.11382672 -185.27500141 332.22900559 -185.26865101 326.34411287 C-185.26356706 320.16132202 -185.2682897 313.97853696 -185.27142334 307.79574585 C-185.27505874 297.40402146 -185.2702779 287.01232553 -185.26074219 276.62060547 C-185.24988714 264.65392857 -185.25336345 252.6873287 -185.264395 240.72064936 C-185.27351435 230.41104924 -185.2747297 220.10146952 -185.26951766 209.79186666 C-185.2664197 203.65056643 -185.2659276 197.50929813 -185.27259064 191.36800003 C-185.27843036 185.58128723 -185.27424788 179.79466104 -185.26280212 174.00795746 C-185.26018933 171.90109525 -185.26086158 169.79422558 -185.26532745 167.68736649 C-185.29946204 149.92563098 -184.58493477 132.15398706 -180.75 114.75 C-180.42358521 113.24409302 -180.42358521 113.24409302 -180.09057617 111.70776367 C-173.56522126 82.73833597 -159.68618172 57.23738092 -139 36 C-138.38382813 35.31035156 -137.76765625 34.62070313 -137.1328125 33.91015625 C-120.63493034 15.98245764 -96.25549977 5.58994196 -73 0 C-72.28859863 -0.17644043 -71.57719727 -0.35288086 -70.84423828 -0.53466797 C-48.87724885 -5.71212472 -21.89900475 -5.17652636 0 0 Z " fill="#42B548" transform="translate(1296,131)"/>
<path d="M0 0 C0.69947754 0.17160645 1.39895508 0.34321289 2.11962891 0.52001953 C42.99200262 10.90752491 79.74716816 36.53699776 101.609375 72.78271484 C119.33542735 103.35560222 121 136.28570239 121 171 C40.81 171 -39.38 171 -122 171 C-119.11415657 183.74314872 -119.11415657 183.74314872 -114.25 195.375 C-113.90638428 196.03508057 -113.56276855 196.69516113 -113.20874023 197.37524414 C-110.1100923 203.14419127 -106.42972344 208.17143173 -102 213 C-101.34773438 213.74378906 -100.69546875 214.48757813 -100.0234375 215.25390625 C-83.80150747 232.72134027 -58.8986607 243.40421387 -35.33984375 245.203125 C-12.06411479 245.65728557 8.49756861 234.70740207 25.06640625 219.046875 C26.73672211 217.38738192 28.37442674 215.70318684 30 214 C35 209 35 209 37.05078125 206.984375 C37.77652344 206.26765625 38.50226563 205.5509375 39.25 204.8125 C40.27867187 203.80123047 40.27867187 203.80123047 41.328125 202.76953125 C43.07449111 201.09201005 43.07449111 201.09201005 44 199 C49.3043741 200.64107382 53.32047568 204.01130615 57.6875 207.3125 C59.38608645 208.5815759 61.08532165 209.84978388 62.78515625 211.1171875 C63.64898926 211.76268555 64.51282227 212.40818359 65.40283203 213.07324219 C69.44521926 216.07216304 73.53499392 219.0040498 77.625 221.9375 C83.51400781 226.17103735 89.34612501 230.45375549 95 235 C92.25162995 247.79365385 80.94566752 259.02902649 72 268 C71.14019531 268.86625 70.28039063 269.7325 69.39453125 270.625 C43.02193787 296.78248251 7.4667661 306.28231076 -28.7800293 306.24658203 C-70.29949595 305.8238889 -110.0040816 288.39063225 -140 260 C-140.94617187 259.12988281 -141.89234375 258.25976562 -142.8671875 257.36328125 C-168.85344453 232.9236229 -184.40600584 195.90029307 -186.12280273 160.46533203 C-187.42963794 116.98624934 -172.93624501 76.16289939 -143.12890625 44.22265625 C-142.42636719 43.48917969 -141.72382812 42.75570312 -141 42 C-140.30777344 41.25621094 -139.61554688 40.51242188 -138.90234375 39.74609375 C-104.62229801 3.97290627 -47.98057144 -11.83066772 0 0 Z M-98 89 C-108.17007712 100.90764943 -108.17007712 100.90764943 -113 115 C-58.88 115 -4.76 115 51 115 C48.51234692 100.07408154 39.22139247 86.63946756 27.4375 77.375 C-14.39585362 47.67651231 -63.10683 49.02083337 -98 89 Z " fill="#41B548" transform="translate(1621,130)"/>
<path d="M0 0 C0.80331757 0.00054382 1.60663513 0.00108765 2.43429565 0.00164795 C37.79842592 0.11097872 74.41972006 8.19921848 102.1875 31.375 C102.7355127 31.82955566 103.28352539 32.28411133 103.84814453 32.75244141 C129.706027 54.56886034 144.499067 85.99341823 148.1875 119.375 C148.52713634 125.39842686 148.4415597 131.43564367 148.41455078 137.46606445 C148.41398545 139.25121047 148.4143056 141.03635694 148.41543579 142.82150269 C148.41600554 147.62847238 148.40431287 152.43534063 148.39028788 157.24228692 C148.37771708 162.28043101 148.37660504 167.31857787 148.37423706 172.35673523 C148.36804085 181.87967813 148.35165537 191.40257467 148.33153808 200.92549723 C148.30912098 211.77443705 148.29817108 222.62337917 148.28814721 233.47233641 C148.26728736 255.77325007 148.23214781 278.0741221 148.1875 300.375 C145.82878037 300.251375 143.4711669 300.11849877 141.11328125 299.98046875 C139.80012939 299.90723389 138.48697754 299.83399902 137.1340332 299.75854492 C122.40576797 298.32717439 110.17925091 291.05525812 100.1875 280.375 C90.0994555 267.18145805 86.8784123 253.40949763 86.91625977 237.07910156 C86.91103302 235.89068665 86.90580627 234.70227173 86.90042114 233.47784424 C86.88757984 230.2461641 86.88313344 227.01459573 86.88157773 223.78289509 C86.87706881 220.37815178 86.85904522 216.97348513 86.84178162 213.56878662 C86.79284713 203.45760678 86.76179073 193.34638225 86.74047852 183.23510742 C86.72387988 175.37186553 86.70085971 167.5087678 86.65745777 159.64562201 C86.63939922 156.26832096 86.62704564 152.8912161 86.62875557 149.51386261 C86.62743635 123.80119764 84.33569158 103.34782814 66.0625 83.75 C46.21338918 64.75059427 20.17169444 59.90198113 -6.390625 60.16015625 C-27.60470391 60.65400627 -47.4213612 69.93421766 -62.8125 84.375 C-82.14030465 104.67547014 -89.48629895 131.24151968 -89.0859375 158.71484375 C-88.41836882 178.01154429 -82.01954207 195.7191755 -70.8125 211.375 C-70.20792969 212.22578125 -69.60335937 213.0765625 -68.98046875 213.953125 C-55.92780856 231.28578171 -35.13808527 242.29493235 -13.8125 245.375 C9.42056566 247.14651637 29.73753311 243.36703038 47.875 228.1875 C57.15725789 220.11424593 65.28080027 210.84770006 72.76171875 201.10546875 C73.23222656 200.53441406 73.70273438 199.96335937 74.1875 199.375 C74.5175 199.375 74.8475 199.375 75.1875 199.375 C75.4196901 209.27588069 75.59712503 219.1761091 75.70562172 229.0791626 C75.7577097 233.67826818 75.82829217 238.27550513 75.94189453 242.87353516 C76.05094072 247.31519773 76.11041928 251.75506928 76.13627243 256.19796753 C76.15468263 257.88862301 76.19063848 259.57918552 76.24480057 261.26907349 C76.65152431 274.49076307 76.65152431 274.49076307 73.02833557 279.15390015 C70.50189869 281.20588043 68.03939933 282.81782004 65.1875 284.375 C63.91553522 285.2137641 62.64732205 286.05831783 61.38671875 286.9140625 C60.22204058 287.61920447 59.05140727 288.31460497 57.875 289 C56.92197998 289.56110474 56.92197998 289.56110474 55.94970703 290.13354492 C36.9491167 301.13799437 17.99379878 305.7546581 -3.81298828 305.69067383 C-6.04640026 305.68752272 -8.27846991 305.71104514 -10.51171875 305.73632812 C-47.32188517 305.89780282 -81.26985799 290.58025265 -107.37890625 264.9375 C-134.10600744 237.74280442 -150.78576003 198.10311771 -151.015625 159.94921875 C-151.02263931 159.16808716 -151.02965363 158.38695557 -151.03688049 157.58215332 C-151.0542901 155.07554297 -151.06073236 152.56916859 -151.0625 150.0625 C-151.06317474 149.20774078 -151.06384949 148.35298157 -151.06454468 147.47232056 C-151.04915248 135.22573944 -150.8380511 123.31041869 -147.8125 111.375 C-147.54711426 110.30596436 -147.54711426 110.30596436 -147.27636719 109.21533203 C-138.27852996 74.02430889 -117.47975757 41.36892954 -85.8125 22.375 C-59.2005496 6.69881411 -30.80103129 -0.07908044 0 0 Z " fill="#41B548" transform="translate(2411.8125,127.625)"/>
<path d="M0 0 C0 78.21 0 156.42 0 237 C28.30991349 237.23597395 28.30991349 237.23597395 51.2890625 223.6328125 C55.52389214 218.65845086 58.71433792 213.0913269 61.93432617 207.43457031 C63.40552278 204.85011772 64.89620535 202.27707749 66.38562012 199.70309448 C67.1500327 198.38166256 67.91345916 197.05965971 68.67590332 195.73709106 C72.20939736 189.61288215 75.84337832 183.55142368 79.5 177.5 C83.57957843 170.73706839 87.6246878 163.95592824 91.609375 157.13671875 C91.99689941 156.47370758 92.38442383 155.81069641 92.78369141 155.12759399 C94.67819293 151.88427038 96.56891538 148.63880471 98.45507812 145.390625 C99.14188377 144.21221434 99.82873066 143.03382772 100.515625 141.85546875 C101.11665039 140.82059326 101.71767578 139.78571777 102.33691406 138.71948242 C102.88573242 137.82205322 103.43455078 136.92462402 104 136 C104.58461754 134.93991478 104.58461754 134.93991478 105.18104553 133.8584137 C107 132 107 132 110.01823425 131.51898193 C111.2551149 131.52786438 112.49199554 131.53674683 113.76635742 131.54589844 C114.44954544 131.54531433 115.13273346 131.54473022 115.83662415 131.54412842 C118.09342371 131.54691385 120.34890016 131.57802443 122.60546875 131.609375 C124.17059101 131.61683583 125.73572261 131.62252951 127.30085754 131.62652588 C131.41927912 131.64179485 135.53713596 131.68108689 139.65533447 131.7253418 C143.85803589 131.76626766 148.06082861 131.78453111 152.26367188 131.8046875 C160.50937368 131.8475805 168.75461658 131.9158464 177 132 C176.04882764 133.9163367 175.09604114 135.83187228 174.14257812 137.74707031 C173.61216919 138.81387024 173.08176025 139.88067017 172.53527832 140.97979736 C170.66307621 144.66279717 168.63322379 148.21412745 166.5 151.75 C165.62571854 153.21840272 164.75205683 154.68717455 163.87890625 156.15625 C163.1830542 157.32414062 163.1830542 157.32414062 162.47314453 158.515625 C159.76778082 163.07806801 157.10614635 167.66602115 154.4375 172.25 C153.24097549 174.29953176 152.04435817 176.34900933 150.84765625 178.3984375 C148.50098902 182.41973029 146.16228095 186.4454619 143.83139038 190.47590637 C118.45465457 234.33306826 118.45465457 234.33306826 102 250 C104.73451438 251.82300958 107.48967213 253.24109667 110.44482422 254.66357422 C130.42689968 264.32518645 144.37118756 277.3885267 152.1953125 298.4375 C155.84016423 310.04440647 157.16027731 321.37336304 157.11352539 333.47680664 C157.11367142 334.48273865 157.11381744 335.48867065 157.1139679 336.52508545 C157.11327626 339.82013168 157.10551918 343.11512 157.09765625 346.41015625 C157.09578941 348.70657826 157.09436676 351.00300067 157.09336853 353.29942322 C157.08956432 359.32124953 157.07975206 365.34305144 157.06866455 371.36486816 C157.05840523 377.51863271 157.05386125 383.67240123 157.04882812 389.82617188 C157.0381278 401.88412526 157.02107672 413.9420606 157 426 C154.46678041 425.87833594 151.93472529 425.74667363 149.40234375 425.609375 C148.69315796 425.57634277 147.98397217 425.54331055 147.2532959 425.50927734 C131.1940486 424.60505084 118.62309088 416.41005257 107.98828125 404.8046875 C99.1772818 394.13974673 95.74469643 382.19589706 95.65625 368.57421875 C95.6343158 367.2709539 95.6343158 367.2709539 95.61193848 365.94136047 C95.56589441 363.1901196 95.53146167 360.43894373 95.5 357.6875 C95.76414597 330.24231551 95.76414597 330.24231551 83.12109375 306.75 C62.27263812 289.54906424 20.9249586 296.38749923 0 296 C0 338.9 0 381.8 0 426 C-19.93029161 424.75435677 -34.16159868 421.43110752 -48 407 C-59.77605198 392.97299241 -62.32007138 377.29845887 -62.25396729 359.48925781 C-62.25708727 358.18073475 -62.26020725 356.87221169 -62.26342177 355.52403641 C-62.271704 351.92577671 -62.26767474 348.32762428 -62.26144934 344.7293644 C-62.25689869 340.83564178 -62.26392149 336.94193681 -62.26940918 333.04821777 C-62.27827707 325.43374606 -62.27639281 317.81931389 -62.2705839 310.20484066 C-62.26605714 304.01338821 -62.26545888 297.8219468 -62.26763153 291.63049316 C-62.267938 290.74746812 -62.26824446 289.86444308 -62.26856022 288.9546597 C-62.2691997 287.16050688 -62.26984813 285.36635406 -62.2705054 283.57220125 C-62.27620107 266.76988182 -62.26966279 249.96758426 -62.25890467 233.16526842 C-62.24996985 218.76511592 -62.25152211 204.36499567 -62.26074219 189.96484375 C-62.27145832 173.22041163 -62.27565181 156.47599864 -62.26951766 139.73156357 C-62.2688806 137.94421133 -62.26825186 136.15685908 -62.26763153 134.36950684 C-62.2671687 133.0505765 -62.2671687 133.0505765 -62.26669653 131.70500112 C-62.26497362 125.524887 -62.26787597 119.34478508 -62.27259064 113.16467285 C-62.2782144 105.6276081 -62.27665165 98.09058498 -62.26602915 90.55352497 C-62.26079253 86.71202619 -62.25868122 82.87059669 -62.26532745 79.02909851 C-62.27243748 74.85625342 -62.26391681 70.68358148 -62.25396729 66.51074219 C-62.25842873 65.30877827 -62.26289017 64.10681435 -62.26748681 62.86842728 C-62.18215056 44.36000829 -57.5969816 29.61985627 -44.9765625 15.78125 C-32.55612565 3.7763668 -16.82332868 0 0 0 Z " fill="#41B548" transform="translate(586,2)"/>
<path d="M0 0 C0.70930664 0.17160645 1.41861328 0.34321289 2.14941406 0.52001953 C36.09502047 9.0636843 66.94136313 28.86532217 88 57 C88.88365234 58.16015625 88.88365234 58.16015625 89.78515625 59.34375 C109.27311428 85.97877236 117.46786877 116.46243313 117.3125 149.1875 C117.31034485 150.00459442 117.3081897 150.82168884 117.30596924 151.6635437 C117.25523317 163.64913432 116.98076115 175.32668047 114 187 C113.79600586 187.80598633 113.59201172 188.61197266 113.38183594 189.44238281 C106.3940347 216.16283965 94.01212721 238.74388648 74 258 C72.824375 259.2065625 72.824375 259.2065625 71.625 260.4375 C70.325625 261.7059375 70.325625 261.7059375 69 263 C68.34 263.64453125 67.68 264.2890625 67 264.953125 C37.45330927 292.75034062 -2.80316439 304.07957034 -42.69848633 302.91259766 C-85.90355792 300.92560053 -122.77218462 281.37356444 -152.07128906 250.14013672 C-156.8986736 244.78357307 -161.07547141 239.04017293 -165 233 C-165.71414062 231.90816406 -166.42828125 230.81632813 -167.1640625 229.69140625 C-186.75069032 197.58899888 -193.1045975 152.89599349 -184.54785156 116.19384766 C-176.97227845 85.85779598 -163.51118506 59.93397518 -141 38 C-140.51144531 37.45472656 -140.02289063 36.90945312 -139.51953125 36.34765625 C-128.69043631 24.65797099 -114.45299801 16.3920429 -100 10 C-99.36852051 9.71930664 -98.73704102 9.43861328 -98.08642578 9.14941406 C-88.97474706 5.16290789 -79.70844856 2.19979952 -70 0 C-68.12634766 -0.45052734 -68.12634766 -0.45052734 -66.21484375 -0.91015625 C-45.46410843 -5.39947365 -20.59757464 -4.99586228 0 0 Z M-101.1875 83.25 C-109.38147301 92.93530961 -115.06052335 103.99496327 -119 116 C-119.21172852 116.63373535 -119.42345703 117.2674707 -119.64160156 117.92041016 C-127.91346914 144.00104495 -124.59222402 175.13936236 -112.1171875 199.24609375 C-109.22738915 204.52712672 -105.80635094 209.3427283 -102 214 C-100.83791016 215.46759766 -100.83791016 215.46759766 -99.65234375 216.96484375 C-85.34392579 233.99557584 -63.15730536 241.81880346 -41.625 243.875 C-17.21565697 244.88236971 5.49380425 238.27943398 24 222 C24.76183594 221.33355469 25.52367187 220.66710937 26.30859375 219.98046875 C42.50419742 204.85147329 52.08029221 181.37529784 53.12426758 159.38208008 C53.93574575 129.16142705 48.57418457 103.26990066 27.44384766 80.48242188 C11.54332021 64.1570917 -9.29824867 56.14551955 -31.85107422 55.64648438 C-58.51127211 55.46458816 -82.58637822 63.4499778 -101.1875 83.25 Z " fill="#41B548" transform="translate(367,131)"/>
<path d="M0 0 C0.70930664 0.17160645 1.41861328 0.34321289 2.14941406 0.52001953 C42.42526557 10.65692413 76.68913582 36.36272427 98 72 C100.9318952 77.20876579 103.52505478 82.56174725 106 88 C106.70769531 89.52947266 106.70769531 89.52947266 107.4296875 91.08984375 C113.78641867 106.11305003 117.09868485 123.71151074 117.203125 139.98828125 C117.21018463 140.72479416 117.21724426 141.46130707 117.22451782 142.22013855 C117.45528924 173.36669743 117.45528924 173.36669743 114 187 C113.69400879 188.21115479 113.69400879 188.21115479 113.38183594 189.44677734 C106.39329999 216.16495734 94.01049737 238.74545475 74 258 C72.824375 259.2065625 72.824375 259.2065625 71.625 260.4375 C70.325625 261.7059375 70.325625 261.7059375 69 263 C68.34 263.64453125 67.68 264.2890625 67 264.953125 C37.45330927 292.75034062 -2.80316439 304.07957034 -42.69848633 302.91259766 C-66.62879934 301.81204484 -89.06768373 295.52310501 -110 284 C-110.63534668 283.65598145 -111.27069336 283.31196289 -111.92529297 282.95751953 C-122.0099925 277.44064106 -130.61319635 270.83909403 -139 263 C-139.62438965 262.41943848 -140.2487793 261.83887695 -140.89208984 261.24072266 C-168.33248747 235.46464028 -185.53239133 201.00598185 -187.16845703 163.09667969 C-188.48144381 120.42693563 -179.03404846 81.15256457 -151 48 C-150.27554688 47.13375 -149.55109375 46.2675 -148.8046875 45.375 C-144.55966316 40.44744234 -140.04372108 36.10016782 -135 32 C-134.07703125 31.23945313 -133.1540625 30.47890625 -132.203125 29.6953125 C-113.94454822 14.95873898 -92.92964153 5.00678881 -70 0 C-68.75734375 -0.29777344 -67.5146875 -0.59554687 -66.234375 -0.90234375 C-45.48490686 -5.40761083 -20.59856184 -4.99610172 0 0 Z M-62 59 C-63.16402344 59.32871094 -64.32804688 59.65742188 -65.52734375 59.99609375 C-86.3933509 66.65938222 -103.04724827 81.80267752 -113.19824219 101.04052734 C-126.25079087 127.09998643 -127.04875436 158.58496205 -118 186 C-114.38138729 196.15867421 -109.49657238 204.47971658 -103 213 C-102.44699219 213.73863281 -101.89398437 214.47726562 -101.32421875 215.23828125 C-87.49143558 232.36621873 -66.19453348 241.06505653 -44.8125 243.375 C-21.87675987 245.41524528 0.75813988 240.40008681 19.1875 226.125 C20.80579257 224.76665364 22.41077152 223.39223868 24 222 C24.67675781 221.41863281 25.35351562 220.83726562 26.05078125 220.23828125 C42.78889878 204.77480995 52.00019686 180.91692776 53.12646484 158.48071289 C53.95120593 129.48082019 48.26305337 103.24871415 28.19921875 81.26171875 C13.47898437 65.85703175 -6.93214591 56.39015342 -28.30859375 55.796875 C-39.91449674 55.64812996 -50.76899258 55.78556335 -62 59 Z " fill="#41B548" transform="translate(961,131)"/>
<path d="M0 0 C0 24.09 0 48.18 0 73 C33.66 73 67.32 73 102 73 C102 92.47 102 111.94 102 132 C68.34 132 34.68 132 0 132 C0.09061254 158.94929688 0.09061254 158.94929688 0.20898438 185.8984375 C0.26343307 196.89126059 0.31484773 207.8840374 0.34643555 218.87695312 C0.36945684 226.88373258 0.40290088 234.89039018 0.44870156 242.89707291 C0.47257818 247.13397455 0.49134331 251.37075592 0.49761391 255.60772324 C0.50369004 259.60179015 0.52378036 263.59554957 0.55427551 267.58950233 C0.56301543 269.04948219 0.56678677 270.50950229 0.56500816 271.96950722 C0.5565216 282.15707789 0.65014938 292.72031845 8.07421875 300.53125 C18.71607647 308.64755528 33.96057368 307.17865083 46.62890625 307.31640625 C48.23030589 307.33701321 49.83170055 307.35801056 51.43309021 307.37937927 C55.62016735 307.43421399 59.80729039 307.48379122 63.9944458 307.53222656 C69.0332153 307.59162596 74.07190209 307.65763862 79.11060333 307.72252655 C86.74035113 307.82004939 94.37015532 307.90923748 102 308 C102 327.47 102 346.94 102 367 C83.58559998 367.08021762 83.58559998 367.08021762 75.60546875 367.09765625 C70.20585086 367.10951266 64.80630215 367.12338256 59.40673828 367.15087891 C-12.18445416 367.50535152 -12.18445416 367.50535152 -37 343 C-53.3467661 325.15636433 -61.15203648 301.07134416 -61.14717102 277.09640503 C-61.15084771 276.11546029 -61.1545244 275.13451555 -61.1583125 274.12384522 C-61.16930255 270.84541618 -61.1731852 267.56701888 -61.17700195 264.28857422 C-61.18327009 261.93427938 -61.1899172 259.57998553 -61.19691467 257.22569275 C-61.21791413 249.50203129 -61.22831257 241.77836972 -61.23828125 234.0546875 C-61.24233021 231.39185702 -61.24644687 228.72902671 -61.25063133 226.06619644 C-61.26763519 214.9878491 -61.28212814 203.90950271 -61.28938007 192.83114433 C-61.29128971 189.96067173 -61.29321008 187.09019913 -61.29516602 184.21972656 C-61.29564976 183.50635695 -61.2961335 182.79298734 -61.2966319 182.05800046 C-61.30492793 170.50826214 -61.33026137 158.95862752 -61.36274669 147.40893446 C-61.39588074 135.53108767 -61.41383445 123.6532935 -61.41702431 111.77540028 C-61.41918326 105.11446184 -61.42828999 98.45365472 -61.45348549 91.79275131 C-61.47681762 85.52345242 -61.48097857 79.25442518 -61.47072411 72.98509407 C-61.47022991 70.69103274 -61.47651582 68.39695779 -61.49028015 66.1029377 C-61.60556398 45.74140604 -58.84990856 30.6787361 -44.40625 15.3203125 C-31.54317908 2.91663697 -17.58260237 0 0 0 Z " fill="#41B448" transform="translate(61,61)"/>
<path d="M0 0 C20.13 0 40.26 0 61 0 C61 97.02 61 194.04 61 294 C42.00371708 292.81273232 27.15932014 289.47593951 13.9609375 275.30078125 C4.01992519 263.63692418 -0.16726802 250.24856809 -0.12025452 235.09757996 C-0.12110894 234.0928375 -0.12196337 233.08809505 -0.12284368 232.05290586 C-0.12449219 228.68263205 -0.11898736 225.3124079 -0.11352539 221.94213867 C-0.11324336 219.52763877 -0.11340157 217.11313877 -0.1139679 214.69863892 C-0.11419569 209.49853726 -0.11135729 204.29844685 -0.10573006 199.09834862 C-0.09759935 191.57990087 -0.09499822 184.06145919 -0.09374207 176.54300753 C-0.09155402 164.34450483 -0.08490062 152.14600883 -0.07543945 139.94750977 C-0.06625895 128.09855177 -0.05918123 116.2495956 -0.05493164 104.40063477 C-0.05466892 103.67013447 -0.05440619 102.93963417 -0.05413551 102.1869975 C-0.05283046 98.52225322 -0.05156676 94.85750894 -0.05032361 91.19276464 C-0.03995869 60.79517058 -0.02152452 30.3975888 0 0 Z " fill="#41B548" transform="translate(2136,134)"/>
<path d="M0 0 C6.61934015 5.5440465 11.6561705 13.8427017 12.86401367 22.46484375 C12.99910898 24.69429083 13.03053974 26.89175115 13 29.125 C12.99170166 29.91253662 12.98340332 30.70007324 12.97485352 31.51147461 C12.67041475 42.06932432 9.2158285 50.85425634 1.5625 58.3125 C-8.66861074 65.60261201 -19.2855619 66.34335579 -31.4375 65.3125 C-40.24182699 63.74518253 -46.6344278 58.9954604 -52.4375 52.3125 C-58.39713641 43.38703513 -60.76970356 33.003894 -58.9375 22.42578125 C-56.60728929 11.87363391 -52.3488493 4.5934868 -43.4375 -1.6875 C-29.87946722 -9.15686697 -12.9789262 -8.87511335 0 0 Z " fill="#41B548" transform="translate(2189.4375,44.6875)"/>
</svg>
