<?xml version="1.0" encoding="UTF-8"?>
<svg version="1.1" xmlns="http://www.w3.org/2000/svg" width="1825" height="406">
<path d="M0 0 C-0.14544467 2.64585516 -0.29135843 5.2916833 -0.4375 7.9375 C-0.47681641 8.65357422 -0.51613281 9.36964844 -0.55664062 10.10742188 C-0.59853516 10.86474609 -0.64042969 11.62207031 -0.68359375 12.40234375 C-0.73 13.2636792 -0.77640625 14.12501465 -0.82421875 15.01245117 C-0.95146293 17.1750721 -1.09704054 19.33664014 -1.25390625 21.49731445 C-2.08507466 33.61678888 -2.15288278 45.7072419 -2.13037109 57.85229492 C-2.12493955 61.35144239 -2.13038546 64.85046544 -2.13671875 68.34960938 C-2.1360591 70.58333362 -2.13478029 72.81705778 -2.1328125 75.05078125 C-2.13584885 76.61316277 -2.13584885 76.61316277 -2.13894653 78.20710754 C-2.13579437 79.17299301 -2.13264221 80.13887848 -2.12939453 81.1340332 C-2.12859894 81.9798848 -2.12780334 82.82573639 -2.12698364 83.69721985 C-2.00404686 85.92661234 -1.62054455 87.86066315 -1 90 C0.29744141 89.12601563 0.29744141 89.12601563 1.62109375 88.234375 C45.08039726 59.66155309 97.14078672 48.55526595 148 42 C147.26017634 45.39427951 146.44508821 46.8758378 143.875 49.25 C141.37433351 51.64436286 139.00871371 54.06324566 136.75 56.6875 C133.73283159 60.18714354 130.63115851 63.60252889 127.5 67 C123.8549568 70.95914388 120.25739236 74.95128502 116.734375 79.01953125 C114.72735462 81.31133155 112.67597149 83.55996752 110.625 85.8125 C106.76977614 90.08310151 103.12417485 94.48773669 99.5078125 98.9609375 C96.6116692 102.47059403 93.62285928 105.8898783 90.625 109.3125 C85.04139422 115.71679748 79.69034549 122.25608209 74.52783203 129.00390625 C73.44133982 130.42339495 72.35073166 131.83973736 71.25732422 133.25390625 C43.34659529 168.38126118 43.34659529 168.38126118 35 211 C38.9171338 225.76315994 55.34540321 239.86339105 67.3125 248.8125 C67.99401123 249.32240479 68.67552246 249.83230957 69.37768555 250.35766602 C80.33690397 258.35748547 92.49556036 264.76686447 105 270 C105 270.66 105 271.32 105 272 C88.72636239 272.98794427 75.41641748 267.67574641 61 261 C38.58297532 250.70001906 16.41849398 244.48115782 -7.9072876 240.49905396 C-42.06480639 234.89573604 -85.11257967 226.91184707 -107.25 197.44140625 C-107.8275 196.63574219 -108.405 195.83007812 -109 195 C-120.42104198 179.11100409 -134.19543574 174.18841864 -152.53515625 168.93359375 C-154.43128741 168.38215415 -156.32741789 167.83071219 -158.22350979 167.27913761 C-160.84128265 166.51910477 -163.4605146 165.76417206 -166.07977295 165.00927734 C-170.66848122 163.68598909 -175.25530993 162.35621859 -179.84141541 161.02394104 C-182.2704451 160.31885155 -184.70021777 159.61631441 -187.13087463 158.91685486 C-194.48406202 156.78709739 -201.75658441 154.47759061 -209 152 C-209 151.67 -209 151.34 -209 151 C-197.9775023 150.573564 -187.39699832 151.89723043 -176.5 153.375 C-174.7904608 153.59969157 -173.08082555 153.82365367 -171.37109375 154.046875 C-163.09410059 155.13552113 -154.83409375 156.29154428 -146.59155273 157.61816406 C-139.65896676 158.63960207 -135.82645062 158.30650698 -130 154 C-120.56185968 150.21407931 -110.53580085 151.1611142 -101.15625 154.640625 C-98.76997524 155.668377 -96.43299929 156.73298551 -94.09375 157.859375 C-93.09009399 158.34168579 -93.09009399 158.34168579 -92.06616211 158.83374023 C-90.75686074 159.47331489 -89.45504845 160.12851842 -88.16235352 160.80102539 C-85.38468357 162.18780504 -83.35566775 163.01051975 -80.2265625 162.91796875 C-76.17390494 161.24713625 -74.79740432 157.82440409 -73 154 C-71.82884182 151.01173557 -71.35505275 148.18637083 -71 145 C-70.85820313 143.91203125 -70.71640625 142.8240625 -70.5703125 141.703125 C-69.80356498 130.13220783 -73.10346305 120.00354816 -76.56738281 109.11328125 C-82.76204253 89.60355106 -86.8026156 69.27408417 -77.875 49.8125 C-64.59049383 25.51741213 -39.53312534 11.13113518 -14 3 C-3.62765957 0 -3.62765957 0 0 0 Z " fill="#009DDA" transform="translate(1677,0)"/>
<path d="M0 0 C1.78615723 0.00845947 1.78615723 0.00845947 3.60839844 0.01708984 C26.18951761 0.32823487 45.88569633 7.53510128 62.6015625 23.07421875 C75.12587322 36.12227337 82.73968608 51.84578647 86.75 69.3125 C86.93763916 70.10027832 87.12527832 70.88805664 87.31860352 71.69970703 C88.93105702 79.30239324 89.02406432 86.80825948 88.95581055 94.53955078 C88.93735192 96.70487065 88.93530297 98.86976519 88.93554688 101.03515625 C88.91586643 106.61438097 88.85020936 111.81145319 87.75 117.3125 C38.91 117.3125 -9.93 117.3125 -60.25 117.3125 C-54.60564184 138.76106099 -48.85887408 156.71159779 -29.25 168.3125 C-28.48171875 168.77269531 -27.7134375 169.23289062 -26.921875 169.70703125 C-10.84041789 178.51988275 8.90222946 180.04480341 26.625 175.8125 C39.27595495 171.80706945 50.89086138 166.29272316 60.75 157.3125 C62.71188321 155.54345146 64.63883079 153.90874989 66.75 152.3125 C70.81403757 153.66717919 71.94176521 156.32994829 74.05078125 159.83203125 C74.45080856 160.48701096 74.85083588 161.14199066 75.26298523 161.81681824 C76.10546577 163.20362354 76.94322811 164.59330449 77.77661133 165.9855957 C79.05776828 168.11712758 80.36470279 170.23126513 81.67382812 172.34570312 C82.4886072 173.69433025 83.30181249 175.04390971 84.11328125 176.39453125 C84.50792068 177.02696243 84.90256012 177.65939362 85.30915833 178.31098938 C86.37231445 180.12036133 86.37231445 180.12036133 87.75 183.3125 C85.69539012 190.97992305 73.70294868 197.24999341 67.23046875 201.04296875 C56.89026 206.81289569 46.20287189 211.28058768 34.75 214.3125 C34.05801514 214.50537598 33.36603027 214.69825195 32.65307617 214.89697266 C24.76659671 216.80180467 16.75995082 216.68468129 8.6940918 216.68310547 C6.2165695 216.68744904 3.74087711 216.72377846 1.26367188 216.76171875 C-12.71361377 216.86118418 -26.01925332 214.71832776 -38.9375 209.125 C-39.63045166 208.83093262 -40.32340332 208.53686523 -41.03735352 208.23388672 C-52.54180712 203.16261093 -62.23934014 196.06220378 -71.25 187.3125 C-71.99636719 186.63960937 -72.74273438 185.96671875 -73.51171875 185.2734375 C-93.04759276 167.06723031 -101.8014198 140.08414518 -103.12426758 113.98583984 C-104.20788521 82.61281998 -95.17071092 52.7912781 -73.60717773 29.62890625 C-54.2449387 9.65236191 -27.58430182 -0.13686569 0 0 Z M-45.984375 57.2421875 C-51.68286356 64.32123772 -55.75996609 72.37229655 -57.25 81.3125 C-22.93 81.3125 11.39 81.3125 46.75 81.3125 C45.370791 67.52041 41.04394166 55.61551246 30.36328125 46.2109375 C5.8833837 28.14884669 -26.44094956 35.49792586 -45.984375 57.2421875 Z " fill="#393839" transform="translate(757.25,189.6875)"/>
<path d="M0 0 C15.2709441 13.31626326 22.82022499 31.68292426 24.2679348 51.70571709 C24.36464374 55.53827751 24.37267618 59.36400276 24.34057617 63.19702148 C24.33972706 64.64749127 24.34021057 66.09796235 24.34190369 67.5484314 C24.34275398 71.43389992 24.32528758 75.31908273 24.30418181 79.20448565 C24.28525127 83.28434417 24.28365182 87.36421139 24.28010559 91.44410706 C24.27083271 99.14664262 24.24628436 106.84904834 24.21605712 114.55152708 C24.18236373 123.33040776 24.16598979 132.1092951 24.15097082 140.88822448 C24.11972973 158.92557125 24.06477827 176.96274034 24 195 C11.13 195 -1.74 195 -15 195 C-15.33 188.73 -15.66 182.46 -16 176 C-17.36125 177.32 -18.7225 178.64 -20.125 180 C-34.69955839 193.0739339 -51.89861757 199.18728357 -71.2800293 199.29516602 C-72.70233176 199.30659336 -74.12459457 199.32689566 -75.54663086 199.35668945 C-88.68648655 199.63117121 -100.4689405 197.41283373 -112.25 191.25 C-112.91837891 190.90565918 -113.58675781 190.56131836 -114.27539062 190.20654297 C-128.68569123 182.55237606 -138.40561741 171.37564388 -144 156 C-146.00286652 149.24576584 -146.35310719 142.70268241 -146.3125 135.6875 C-146.30686035 134.67002686 -146.3012207 133.65255371 -146.29541016 132.60424805 C-146.01782935 115.43958559 -140.26515489 102.09627152 -128 90 C-127.07767578 89.06220703 -127.07767578 89.06220703 -126.13671875 88.10546875 C-97.98406296 61.39963039 -53.12841217 61.56760324 -17 62 C-17.28726916 59.6161567 -17.58270404 57.23379512 -17.8828125 54.8515625 C-18.00233276 53.84911499 -18.00233276 53.84911499 -18.12426758 52.82641602 C-19.16679878 44.67072933 -21.56723479 38.20887452 -27 32 C-27 31.34 -27 30.68 -27 30 C-27.58394531 29.71125 -28.16789062 29.4225 -28.76953125 29.125 C-30.13196865 28.43781616 -31.48614896 27.73350293 -32.82421875 27 C-33.43910156 26.67 -34.05398438 26.34 -34.6875 26 C-35.28949219 25.67 -35.89148437 25.34 -36.51171875 25 C-54.01513925 17.96565832 -74.42048931 21.97096939 -91.3125 28.75 C-97.09141051 31.35983055 -102.22843464 34.5795732 -107.37890625 38.265625 C-109.87862841 39.91968855 -112.21300726 40.9363468 -115 42 C-119.58518554 35.3103962 -123.78048679 28.43615323 -127.875 21.4375 C-128.46796875 20.42880859 -129.0609375 19.42011719 -129.671875 18.38085938 C-131.11692907 15.92193673 -132.55958541 13.46164227 -134 11 C-120.86911601 -2.28936017 -104.95014237 -9.41811849 -87 -14 C-85.75863281 -14.3196875 -84.51726562 -14.639375 -83.23828125 -14.96875 C-55.35460887 -21.31379074 -22.53905715 -18.74300542 0 0 Z M-97 114 C-103.15000002 120.68993578 -105.54319848 127.34494124 -105.30859375 136.453125 C-104.36758269 144.21944413 -99.9023203 151.00976116 -94 156 C-82.32201787 163.04046105 -70.10324326 165.08498534 -56.6875 162.31640625 C-41.60965749 157.15481528 -30.82915695 145.97460681 -23.87255859 131.91748047 C-19.711406 122.77319046 -16.83569925 113.2657746 -16.9375 103.1875 C-16.94652344 102.02605469 -16.95554687 100.86460937 -16.96484375 99.66796875 C-16.97644531 98.78753906 -16.98804688 97.90710938 -17 97 C-59.7711126 95.80033373 -59.7711126 95.80033373 -97 114 Z " fill="#393839" transform="translate(1536,207)"/>
<path d="M0 0 C3.15144687 2.65812646 6.13300872 5.41160152 8.9375 8.4375 C9.46859375 8.9634375 9.9996875 9.489375 10.546875 10.03125 C22.25011441 22.25233187 28.07202193 41.04683827 28.05775452 57.73971558 C28.05981651 59.60740852 28.05981651 59.60740852 28.06192017 61.51283264 C28.05838175 62.87948633 28.05474695 64.24613977 28.05102539 65.61279297 C28.05074311 67.0619354 28.05090206 68.51107798 28.0514679 69.96022034 C28.05175426 73.88330624 28.04588351 77.80636143 28.03889394 81.72944021 C28.03263364 85.83338864 28.03205448 89.93733781 28.03086853 94.04129028 C28.02776311 101.80781887 28.01956035 109.57433334 28.00951904 117.34085572 C27.99833341 126.18483916 27.99284128 135.02882328 27.98782361 143.87281203 C27.97737708 162.06105098 27.9590414 180.24927058 27.9375 198.4375 C15.0675 198.4375 2.1975 198.4375 -11.0625 198.4375 C-11.3925 192.1675 -11.7225 185.8975 -12.0625 179.4375 C-13.485625 180.778125 -14.90875 182.11875 -16.375 183.5 C-31.31101867 196.82752436 -47.50410137 202.62223969 -67.3425293 202.73266602 C-68.76483176 202.74409336 -70.18709457 202.76439566 -71.60913086 202.79418945 C-84.70717498 203.0677978 -96.49285912 200.86823947 -108.25 194.75 C-109.24978882 194.23409302 -109.24978882 194.23409302 -110.26977539 193.70776367 C-126.096639 185.25393492 -135.84786606 172.57129724 -141.0625 155.4375 C-145.250857 137.08608174 -141.6821413 118.35193571 -132.0625 102.4375 C-114.30517135 78.5853554 -85.99943487 71.43492053 -58.1328125 66.78125 C-43.23935934 64.71017676 -28.07612889 64.77550244 -13.0625 64.4375 C-13.32509143 62.07360913 -13.60186737 59.71279034 -13.88671875 57.3515625 C-13.9585437 56.69164307 -14.03036865 56.03172363 -14.10437012 55.35180664 C-15.09603778 47.34464389 -18.42727818 40.78494394 -23.375 34.5 C-35.39849061 25.27266999 -48.34104535 24.24826932 -63.0625 25.4375 C-78.62230893 27.57481852 -92.25437726 33.69535493 -104.9765625 42.80859375 C-106.29596737 43.74777604 -107.67376047 44.60425628 -109.0625 45.4375 C-113.16434329 44.0702189 -114.22420121 41.33820612 -116.29296875 37.77734375 C-116.68825272 37.11287735 -117.08353668 36.44841095 -117.49079895 35.7638092 C-118.75222619 33.6390284 -120.00118917 31.50721553 -121.25 29.375 C-122.10270512 27.93376495 -122.95621107 26.49300338 -123.81054688 25.05273438 C-125.90386561 21.51975132 -127.98603433 17.98041229 -130.0625 14.4375 C-116.85344333 1.18650553 -101.05836267 -5.96894811 -83.0625 -10.5625 C-81.82113281 -10.8821875 -80.57976562 -11.201875 -79.30078125 -11.53125 C-54.11896793 -17.26147195 -21.39734858 -16.18878346 0 0 Z M-94.875 118.875 C-100.13356484 125.64264526 -102.08187114 132.94274049 -101.0625 141.4375 C-99.74092026 149.49487326 -95.1752464 155.201919 -89.0625 160.4375 C-78.01854585 166.95060117 -65.25932033 168.33542872 -52.75 165.75390625 C-37.57239927 160.55816509 -26.96453683 149.36125357 -19.93066406 135.26367188 C-14.64206397 124.13916999 -12.0625 112.74424827 -12.0625 100.4375 C-56.57289792 99.0425234 -56.57289792 99.0425234 -94.875 118.875 Z " fill="#393839" transform="translate(405.0625,203.5625)"/>
<path d="M0 0 C3.22533806 2.63389797 6.30224279 5.40399021 9.36328125 8.2265625 C10.02585937 8.80792969 10.6884375 9.38929688 11.37109375 9.98828125 C29.44836756 26.6782294 40.21372857 53.27844981 41.484375 77.53857422 C42.72960205 109.77127641 33.30573513 138.05392403 11.7421875 162.15625 C-4.31301323 178.9804226 -30.08511968 193.51708159 -53.89282227 194.51708984 C-55.35026541 194.54333888 -56.80795219 194.55808338 -58.265625 194.5625 C-59.4547776 194.5724852 -59.4547776 194.5724852 -60.66795349 194.58267212 C-62.33598542 194.59272464 -64.00405696 194.59749146 -65.67211914 194.59716797 C-68.16949277 194.60151081 -70.66505062 194.63782379 -73.16210938 194.67578125 C-101.91636427 194.87671558 -127.7352355 182.6678545 -148.32421875 162.9765625 C-169.03679439 141.48124417 -179.05857655 113.21212161 -178.93945312 83.54443359 C-178.28868127 53.3980299 -165.71363151 27.37519298 -144.55859375 6.140625 C-106.37018069 -29.64333242 -41.14876541 -32.27135198 0 0 Z M-121.32421875 40.3515625 C-133.85268501 56.44377976 -138.54628292 75.11137231 -136.63671875 95.2265625 C-134.19743274 113.86767432 -125.50274016 130.12687451 -111.109375 142.34765625 C-94.00375519 155.34576546 -74.93561724 158.26062931 -54.015625 155.80078125 C-36.75083538 151.98238137 -21.7227192 140.91757149 -11.76171875 126.515625 C-1.52369494 110.05535395 2.19319101 90.14338508 -1.28515625 71.0078125 C-5.6448347 53.27100103 -15.19523942 37.34197008 -30.63671875 27.2265625 C-61.03077748 9.15218481 -97.50066942 12.95247203 -121.32421875 40.3515625 Z " fill="#393839" transform="translate(1141.63671875,211.7734375)"/>
<path d="M0 0 C13.53 0 27.06 0 41 0 C41 49.83 41 99.66 41 151 C60.98434901 152.42120317 60.98434901 152.42120317 68.125 143.8125 C69.58722764 141.83539685 69.58722764 141.83539685 70.6015625 139.95703125 C72.93283753 136.02576738 75.62405851 132.54391182 78.5 129 C79.41870042 127.83493415 80.33536807 126.66826252 81.25 125.5 C97.75 104.5 97.75 104.5 99.12719727 102.74731445 C100.03668371 101.58971273 100.946028 100.4319993 101.85522461 99.27416992 C104.25554791 96.21784158 106.6588749 93.1639359 109.06640625 90.11328125 C109.56785156 89.47712891 110.06929687 88.84097656 110.5859375 88.18554688 C111.54726881 86.96608031 112.50946435 85.74729439 113.47265625 84.52929688 C115.41249364 82.06697352 117.25998061 79.61002909 119 77 C121.17666626 76.63923645 121.17666626 76.63923645 123.90869141 76.65942383 C125.44005234 76.65976372 125.44005234 76.65976372 127.00234985 76.66011047 C128.10759003 76.67559433 129.2128302 76.69107819 130.3515625 76.70703125 C131.4807309 76.71127609 132.60989929 76.71552094 133.77328491 76.71989441 C137.39076273 76.73672868 141.00768969 76.77439025 144.625 76.8125 C147.07290864 76.82754066 149.52082598 76.84123014 151.96875 76.85351562 C157.9793556 76.88664773 163.98963846 76.93689421 170 77 C168.61333975 79.85681057 167.17501776 82.18244185 165.12890625 84.6171875 C164.56034912 85.29918213 163.99179199 85.98117676 163.40600586 86.68383789 C162.79764893 87.40692139 162.18929199 88.13000488 161.5625 88.875 C157.11393826 94.21612026 152.70674648 99.57676922 148.4375 105.0625 C143.97860808 110.78536221 139.42115831 116.42151688 134.83349609 122.04150391 C131.36095006 126.30331165 127.94171241 130.60143627 124.5625 134.9375 C119.81697432 141.02173208 114.92946302 146.98192677 110.01147461 152.92724609 C105.61720607 158.24058936 101.27818687 163.59247809 97 169 C104.47096735 181.03514194 112.62456909 192.59275286 120.72021484 204.21166992 C121.7249585 205.65376831 121.7249585 205.65376831 122.75 207.125 C123.76634521 208.58353394 123.76634521 208.58353394 124.80322266 210.0715332 C130.77044682 218.64615957 136.66002778 227.2722814 142.53515625 235.91015625 C146.8903806 242.31320924 151.27916684 248.69294703 155.671875 255.0703125 C157.07452207 257.10827619 158.47500094 259.14771642 159.875 261.1875 C160.59127563 262.23067383 160.59127563 262.23067383 161.32202148 263.29492188 C162.25948988 264.66049389 163.19651608 266.02636961 164.13305664 267.39257812 C167.31675775 272.02974584 170.55751807 276.62280015 173.85546875 281.1796875 C175 283 175 283 175 285 C135.49984984 291.86725245 135.49984984 291.86725245 122.49255371 283.36004639 C112.70159582 274.6798902 106.8556636 261.96651343 101.0068512 250.48214722 C95.51835827 239.73356981 88.84145952 229.94790916 81.9515686 220.0597229 C78.86401178 215.6144889 75.83921183 211.1273991 72.8125 206.640625 C72.29621536 205.88092911 71.77993073 205.12123322 71.2480011 204.33851624 C70.76010605 203.61869064 70.272211 202.89886505 69.76953125 202.15722656 C69.35292236 201.54381409 68.93631348 200.93040161 68.50708008 200.29840088 C66.28047033 196.90266772 64.15213473 193.44341557 62 190 C51.605 189.505 51.605 189.505 41 189 C41 220.68 41 252.36 41 285 C27.47 285 13.94 285 0 285 C0 190.95 0 96.9 0 0 Z " fill="#393839" transform="translate(1217,117)"/>
<path d="M0 0 C14.52 0 29.04 0 44 0 C47.18543714 7.64504914 50.29484999 15.25914012 53.1953125 23.0078125 C53.5806163 24.03160004 53.9659201 25.05538757 54.36289978 26.11019897 C55.189207 28.30628441 56.01459813 30.50271472 56.83914185 32.69946289 C59.05630173 38.60599578 61.2805508 44.50985961 63.50390625 50.4140625 C64.18727303 52.22955597 64.18727303 52.22955597 64.88444519 54.08172607 C70.37180164 68.65431805 75.9072115 83.2085977 81.4453125 97.76196289 C82.21225504 99.77750063 82.97918245 101.79304413 83.74609375 103.80859375 C84.29679031 105.25574516 84.29679031 105.25574516 84.85861206 106.73213196 C87.11442756 112.66292629 89.36037336 118.59734807 91.59765625 124.53515625 C92.12424101 125.93099961 92.65085115 127.32683339 93.17749023 128.72265625 C94.11090546 131.19684883 95.0409209 133.67222682 95.96899414 136.1484375 C96.3633667 137.19386719 96.75773926 138.23929688 97.1640625 139.31640625 C97.49873535 140.20787354 97.8334082 141.09934082 98.17822266 142.01782227 C98.83738611 143.96485013 98.83738611 143.96485013 100 145 C108.41807183 122.94434326 116.81195781 100.87984577 125.14666748 78.7925415 C131.76660324 61.25043432 138.41124725 43.71775016 145.0625 26.1875 C145.43688076 25.20074783 145.43688076 25.20074783 145.81882477 24.19406128 C148.87871642 16.12918433 151.93926889 8.06455844 155 0 C169.52 0 184.04 0 199 0 C195.62495953 11.2501349 195.62495953 11.2501349 193.96972656 15.56518555 C193.41113701 17.02927856 193.41113701 17.02927856 192.84126282 18.52294922 C192.44505234 19.55049316 192.04884186 20.57803711 191.640625 21.63671875 C191.21972092 22.73685303 190.79881683 23.8369873 190.36515808 24.97045898 C188.99689598 28.544142 187.62352037 32.11583505 186.25 35.6875 C185.29145266 38.1877943 184.33317745 40.68819126 183.37524414 43.1887207 C181.01139249 49.35706474 178.64279708 55.52357421 176.27252197 61.68945312 C175.13723484 64.64297483 174.00269055 67.59677983 172.86865234 70.55078125 C169.56215638 79.16340974 166.25007583 87.77387327 162.93367004 96.38269043 C159.14600031 106.21537954 155.36451148 116.05044559 151.58242798 125.88528442 C149.47309993 131.37020645 147.36348891 136.85501964 145.25390625 142.33984375 C144.39208847 144.58056588 143.53027208 146.82128854 142.66845703 149.06201172 C135.11230469 168.70800781 127.55615234 188.35400391 120 208 C106.8 208 93.6 208 80 208 C70.2846511 183.25584594 60.62456422 158.49133183 51.0625 133.6875 C50.3684758 131.88721848 50.3684758 131.88721848 49.66043091 130.05056763 C49.19635834 128.84673431 48.73228577 127.642901 48.25415039 126.40258789 C47.32048822 123.98062652 46.38681313 121.55867012 45.453125 119.13671875 C44.7645768 117.35059929 44.7645768 117.35059929 44.06211853 115.52839661 C39.8803666 104.68374619 35.68330049 93.84506888 31.47967529 83.00888062 C30.32283797 80.02665043 29.16650777 77.04422402 28.01025391 74.06176758 C24.35245954 64.6288893 20.68908123 55.19822705 17.01502991 45.77166748 C15.24671837 41.23365963 13.48071262 36.69475616 11.7149353 32.15576172 C10.87188088 29.99059478 10.02768659 27.82587128 9.18228149 25.66162109 C8.01323535 22.66873175 6.84802246 19.67437576 5.68359375 16.6796875 C5.33869904 15.79973114 4.99380432 14.91977478 4.63845825 14.01315308 C4.31876068 13.18880768 3.99906311 12.36446228 3.66967773 11.51513672 C3.25600197 10.45442459 3.25600197 10.45442459 2.83396912 9.37228394 C1.75153154 6.29321396 0.89663282 3.13821487 0 0 Z " fill="#393839" transform="translate(451,194)"/>
<path d="M0 0 C13.2 0 26.4 0 40 0 C40 18.15 40 36.3 40 55 C56.17 55 72.34 55 89 55 C89 66.88 89 78.76 89 91 C72.83 91 56.66 91 40 91 C40.09102154 108.07629599 40.09102154 108.07629599 40.20898438 125.15234375 C40.26312554 132.12611828 40.3142422 139.09981558 40.34643555 146.07373047 C40.37261673 151.7019229 40.41312216 157.32985308 40.46318626 162.95788193 C40.47975537 165.09541413 40.49133117 167.23299158 40.49761391 169.37057877 C40.19802377 193.47183235 40.19802377 193.47183235 51.04296875 214.21875 C58.59338178 221.39229216 66.32078601 223.92629146 76.6875 224.1875 C82.99055325 224.09276099 82.99055325 224.09276099 93 222 C93 234.87 93 247.74 93 261 C86.45340983 262.30931803 80.95150554 263.36433362 74.4375 263.3125 C73.67010498 263.30686035 72.90270996 263.3012207 72.11206055 263.29541016 C51.50807232 262.86945523 33.55734433 256.84340692 18.25 242.6875 C3.12742625 226.69664451 -1.1956578 204.78616966 -1.11352539 183.52319336 C-1.11367142 182.51726135 -1.11381744 181.51132935 -1.1139679 180.47491455 C-1.11327626 177.17986832 -1.10551918 173.88488 -1.09765625 170.58984375 C-1.09578941 168.29342174 -1.09436676 165.99699933 -1.09336853 163.70057678 C-1.08956432 157.67875047 -1.07975206 151.65694856 -1.06866455 145.63513184 C-1.05840523 139.48136729 -1.05386125 133.32759877 -1.04882812 127.17382812 C-1.0381278 115.11587301 -1.0205481 103.05794236 -1 91 C-9.25 91 -17.5 91 -26 91 C-26 79.12 -26 67.24 -26 55 C-17.42 55 -8.84 55 0 55 C0 36.85 0 18.7 0 0 Z " fill="#393839" transform="translate(26,141)"/>
<path d="M0 0 C13.53 0 27.06 0 41 0 C41.00808685 2.88652817 41.01617371 5.77305634 41.02450562 8.74705505 C41.09962342 35.2336394 41.18452234 61.72018018 41.28005161 88.20669874 C41.29257007 91.68003522 41.30500291 95.15337201 41.31738281 98.62670898 C41.31984881 99.31817082 41.3223148 100.00963265 41.32485552 100.72204787 C41.36454985 111.90951198 41.39731189 123.09698615 41.42749982 134.28447949 C41.45864365 145.76887023 41.49741227 157.25321418 41.54279006 168.73755795 C41.56802898 175.18602841 41.58981807 181.63446883 41.60334396 188.08297539 C41.61618782 194.15433561 41.63826756 200.22559266 41.66738319 206.29689598 C41.67644075 208.52327101 41.68214494 210.74966265 41.68421364 212.97605515 C41.68754901 216.02085072 41.70306116 219.06535605 41.7215271 222.11009216 C41.71959237 222.98657659 41.71765763 223.86306103 41.71566427 224.76610559 C41.78660061 232.61531156 42.19628741 240.19628741 48 246 C54.26808495 249.13404247 61.99206799 247 69 247 C69 259.54 69 272.08 69 285 C53.13574507 288.52538999 36.73299584 288.41729683 22.3125 280 C20.8599684 279.02196206 19.41959314 278.02526171 18 277 C17.113125 276.4225 16.22625 275.845 15.3125 275.25 C3.42171298 263.6805856 0.02586039 248.4002692 -0.21979737 232.34137201 C-0.25731305 227.09620124 -0.24461249 221.85167504 -0.22705078 216.60644531 C-0.22648599 214.24017339 -0.22680456 211.87390112 -0.22793579 209.50762939 C-0.22850764 203.11181874 -0.21678052 196.71608371 -0.20278788 190.32029057 C-0.19152412 184.30497194 -0.18953854 178.28965598 -0.18748413 172.27432904 C-0.18311822 160.36809321 -0.16983925 148.46188494 -0.15087891 136.55566406 C-0.13249141 124.9970717 -0.11834899 113.43848686 -0.10986328 101.87988281 C-0.10907511 100.80929343 -0.10907511 100.80929343 -0.10827102 99.71707597 C-0.10566074 96.13614653 -0.10313338 92.55521704 -0.10064721 88.97428751 C-0.07994914 59.31617291 -0.04419939 29.65808909 0 0 Z " fill="#393839" transform="translate(881,117)"/>
<path d="M0 0 C0 13.86 0 27.72 0 42 C-3.63 41.01 -7.26 40.02 -11 39 C-24.13003298 38.00278231 -36.07170705 41.59151068 -46.0625 50.125 C-58.30938607 61.65920357 -64.28279358 76.81325569 -68 93 C-68.16726593 93.7143924 -68.33453186 94.42878479 -68.50686646 95.16482544 C-70.70849622 106.15801387 -70.35562839 117.32011833 -70.4140625 128.484375 C-70.43279851 130.75409632 -70.45237369 133.02381086 -70.4727478 135.29351807 C-70.52381803 141.23140439 -70.56357737 147.16931323 -70.60089111 153.1072998 C-70.64108912 159.1809637 -70.69210899 165.25453595 -70.7421875 171.328125 C-70.83864913 183.21869165 -70.92214647 195.10929694 -71 207 C-84.53 207 -98.06 207 -112 207 C-112 138.36 -112 69.72 -112 -1 C-98.8 -1 -85.6 -1 -72 -1 C-71.67 7.58 -71.34 16.16 -71 25 C-68.69 22.36 -66.38 19.72 -64 17 C-53.22366924 5.95945098 -39.09154829 -1.76315857 -23.51953125 -2.9765625 C-15.3528731 -3.05253141 -7.79231137 -2.59743712 0 0 Z " fill="#393839" transform="translate(256,195)"/>
<path d="M0 0 C0.33 0.99 0.66 1.98 1 3 C0.50371094 3.4846875 0.00742188 3.969375 -0.50390625 4.46875 C-4.51544386 8.42700343 -8.34508256 12.4629335 -12.01953125 16.734375 C-14.46605851 19.53316358 -16.98080278 22.26686454 -19.5 25 C-23.14506925 28.95911923 -26.74260831 32.95128578 -30.265625 37.01953125 C-32.27264538 39.31133155 -34.32402851 41.55996752 -36.375 43.8125 C-40.23022386 48.08310151 -43.87582515 52.48773669 -47.4921875 56.9609375 C-50.3883308 60.47059403 -53.37714072 63.8898783 -56.375 67.3125 C-61.95860578 73.71679748 -67.30965451 80.25608209 -72.47216797 87.00390625 C-73.55866018 88.42339495 -74.64926834 89.83973736 -75.74267578 91.25390625 C-94.53341004 115.58936626 -113.07919206 140.14384929 -112 172 C-138.60877251 148.36800798 -146.54422375 93.6560533 -148.83789062 60.03222656 C-148.97164951 57.95365372 -148.97164951 57.95365372 -149.39648438 55.74121094 C-149.69945091 53.19822586 -149.73195177 51.46176619 -149 49 C-146.09727995 45.93932499 -142.66706964 44.03646743 -139 42 C-138.01999023 41.43571289 -137.03998047 40.87142578 -136.03027344 40.29003906 C-132.84210198 38.50372983 -129.62208446 36.80174996 -126.375 35.125 C-125.79041016 34.82285583 -125.20582031 34.52071167 -124.60351562 34.20941162 C-112.75346878 28.11824734 -100.65424077 23.1735088 -88 19 C-86.45554199 18.48663086 -86.45554199 18.48663086 -84.87988281 17.96289062 C-57.28304922 8.94166259 -28.73400812 3.79526247 0 0 Z " fill="#0099C2" transform="translate(1824,42)"/>
<path d="M0 0 C0.00879936 0.9048539 0.00879936 0.9048539 0.01777649 1.82798767 C0.45888983 45.33919356 1.15850968 88.70018724 12.3984375 131.04296875 C13 134 13 134 12 137 C-10.56182915 103.721302 -21.28724199 62.80295375 -24 23 C-24.06340576 22.21544434 -24.12681152 21.43088867 -24.19213867 20.62255859 C-24.48367235 14.60486339 -24.48367235 14.60486339 -22.26953125 11.8359375 C-21.45871094 11.35382813 -20.64789062 10.87171875 -19.8125 10.375 C-18.91273437 9.82457031 -18.01296875 9.27414063 -17.0859375 8.70703125 C-15.55839844 7.86205078 -15.55839844 7.86205078 -14 7 C-13.42797852 6.67692871 -12.85595703 6.35385742 -12.26660156 6.02099609 C-1.58785377 0 -1.58785377 0 0 0 Z " fill="#007BA5" transform="translate(1699,77)"/>
</svg>
